<?xml version="1.0" encoding="utf-8" standalone="no"?>
<!DOCTYPE svg PUBLIC "-//W3C//DTD SVG 1.1//EN"
  "http://www.w3.org/Graphics/SVG/1.1/DTD/svg11.dtd">
<svg xmlns:xlink="http://www.w3.org/1999/xlink" width="460.8pt" height="691.2pt" viewBox="0 0 460.8 691.2" xmlns="http://www.w3.org/2000/svg" version="1.1">
 <metadata>
  <rdf:RDF xmlns:dc="http://purl.org/dc/elements/1.1/" xmlns:cc="http://creativecommons.org/ns#" xmlns:rdf="http://www.w3.org/1999/02/22-rdf-syntax-ns#">
   <cc:Work>
    <dc:type rdf:resource="http://purl.org/dc/dcmitype/StillImage"/>
    <dc:date>2025-06-03T23:25:47.311020</dc:date>
    <dc:format>image/svg+xml</dc:format>
    <dc:creator>
     <cc:Agent>
      <dc:title>Matplotlib v3.10.3, https://matplotlib.org/</dc:title>
     </cc:Agent>
    </dc:creator>
   </cc:Work>
  </rdf:RDF>
 </metadata>
 <defs>
  <style type="text/css">*{stroke-linejoin: round; stroke-linecap: butt}</style>
 </defs>
 <g id="figure_1">
  <g id="patch_1">
   <path d="M 0 691.2 
L 460.8 691.2 
L 460.8 0 
L 0 0 
z
" style="fill: #ffffff"/>
  </g>
  <g id="axes_1">
   <g id="patch_2">
    <path d="M 66.26 307.6 
L 450 307.6 
L 450 26.88 
L 66.26 26.88 
z
" style="fill: #ffffff"/>
   </g>
   <g id="matplotlib.axis_1">
    <g id="xtick_1">
     <g id="line2d_1">
      <defs>
       <path id="md405308e44" d="M 0 0 
L 0 3.5 
" style="stroke: #000000; stroke-width: 0.8"/>
      </defs>
      <g>
       <use xlink:href="#md405308e44" x="83.702727" y="307.6" style="stroke: #000000; stroke-width: 0.8"/>
      </g>
     </g>
     <g id="text_1">
      <!-- 0.00 -->
      <g transform="translate(72.569915 322.198437) scale(0.1 -0.1)">
       <defs>
        <path id="DejaVuSans-30" d="M 2034 4250 
Q 1547 4250 1301 3770 
Q 1056 3291 1056 2328 
Q 1056 1369 1301 889 
Q 1547 409 2034 409 
Q 2525 409 2770 889 
Q 3016 1369 3016 2328 
Q 3016 3291 2770 3770 
Q 2525 4250 2034 4250 
z
M 2034 4750 
Q 2819 4750 3233 4129 
Q 3647 3509 3647 2328 
Q 3647 1150 3233 529 
Q 2819 -91 2034 -91 
Q 1250 -91 836 529 
Q 422 1150 422 2328 
Q 422 3509 836 4129 
Q 1250 4750 2034 4750 
z
" transform="scale(0.015625)"/>
        <path id="DejaVuSans-2e" d="M 684 794 
L 1344 794 
L 1344 0 
L 684 0 
L 684 794 
z
" transform="scale(0.015625)"/>
       </defs>
       <use xlink:href="#DejaVuSans-30"/>
       <use xlink:href="#DejaVuSans-2e" transform="translate(63.623047 0)"/>
       <use xlink:href="#DejaVuSans-30" transform="translate(95.410156 0)"/>
       <use xlink:href="#DejaVuSans-30" transform="translate(159.033203 0)"/>
      </g>
     </g>
    </g>
    <g id="xtick_2">
     <g id="line2d_2">
      <g>
       <use xlink:href="#md405308e44" x="127.31004" y="307.6" style="stroke: #000000; stroke-width: 0.8"/>
      </g>
     </g>
     <g id="text_2">
      <!-- 0.25 -->
      <g transform="translate(116.177227 322.198437) scale(0.1 -0.1)">
       <defs>
        <path id="DejaVuSans-32" d="M 1228 531 
L 3431 531 
L 3431 0 
L 469 0 
L 469 531 
Q 828 903 1448 1529 
Q 2069 2156 2228 2338 
Q 2531 2678 2651 2914 
Q 2772 3150 2772 3378 
Q 2772 3750 2511 3984 
Q 2250 4219 1831 4219 
Q 1534 4219 1204 4116 
Q 875 4013 500 3803 
L 500 4441 
Q 881 4594 1212 4672 
Q 1544 4750 1819 4750 
Q 2544 4750 2975 4387 
Q 3406 4025 3406 3419 
Q 3406 3131 3298 2873 
Q 3191 2616 2906 2266 
Q 2828 2175 2409 1742 
Q 1991 1309 1228 531 
z
" transform="scale(0.015625)"/>
        <path id="DejaVuSans-35" d="M 691 4666 
L 3169 4666 
L 3169 4134 
L 1269 4134 
L 1269 2991 
Q 1406 3038 1543 3061 
Q 1681 3084 1819 3084 
Q 2600 3084 3056 2656 
Q 3513 2228 3513 1497 
Q 3513 744 3044 326 
Q 2575 -91 1722 -91 
Q 1428 -91 1123 -41 
Q 819 9 494 109 
L 494 744 
Q 775 591 1075 516 
Q 1375 441 1709 441 
Q 2250 441 2565 725 
Q 2881 1009 2881 1497 
Q 2881 1984 2565 2268 
Q 2250 2553 1709 2553 
Q 1456 2553 1204 2497 
Q 953 2441 691 2322 
L 691 4666 
z
" transform="scale(0.015625)"/>
       </defs>
       <use xlink:href="#DejaVuSans-30"/>
       <use xlink:href="#DejaVuSans-2e" transform="translate(63.623047 0)"/>
       <use xlink:href="#DejaVuSans-32" transform="translate(95.410156 0)"/>
       <use xlink:href="#DejaVuSans-35" transform="translate(159.033203 0)"/>
      </g>
     </g>
    </g>
    <g id="xtick_3">
     <g id="line2d_3">
      <g>
       <use xlink:href="#md405308e44" x="170.917352" y="307.6" style="stroke: #000000; stroke-width: 0.8"/>
      </g>
     </g>
     <g id="text_3">
      <!-- 0.50 -->
      <g transform="translate(159.78454 322.198437) scale(0.1 -0.1)">
       <use xlink:href="#DejaVuSans-30"/>
       <use xlink:href="#DejaVuSans-2e" transform="translate(63.623047 0)"/>
       <use xlink:href="#DejaVuSans-35" transform="translate(95.410156 0)"/>
       <use xlink:href="#DejaVuSans-30" transform="translate(159.033203 0)"/>
      </g>
     </g>
    </g>
    <g id="xtick_4">
     <g id="line2d_4">
      <g>
       <use xlink:href="#md405308e44" x="214.524665" y="307.6" style="stroke: #000000; stroke-width: 0.8"/>
      </g>
     </g>
     <g id="text_4">
      <!-- 0.75 -->
      <g transform="translate(203.391853 322.198437) scale(0.1 -0.1)">
       <defs>
        <path id="DejaVuSans-37" d="M 525 4666 
L 3525 4666 
L 3525 4397 
L 1831 0 
L 1172 0 
L 2766 4134 
L 525 4134 
L 525 4666 
z
" transform="scale(0.015625)"/>
       </defs>
       <use xlink:href="#DejaVuSans-30"/>
       <use xlink:href="#DejaVuSans-2e" transform="translate(63.623047 0)"/>
       <use xlink:href="#DejaVuSans-37" transform="translate(95.410156 0)"/>
       <use xlink:href="#DejaVuSans-35" transform="translate(159.033203 0)"/>
      </g>
     </g>
    </g>
    <g id="xtick_5">
     <g id="line2d_5">
      <g>
       <use xlink:href="#md405308e44" x="258.131978" y="307.6" style="stroke: #000000; stroke-width: 0.8"/>
      </g>
     </g>
     <g id="text_5">
      <!-- 1.00 -->
      <g transform="translate(246.999165 322.198437) scale(0.1 -0.1)">
       <defs>
        <path id="DejaVuSans-31" d="M 794 531 
L 1825 531 
L 1825 4091 
L 703 3866 
L 703 4441 
L 1819 4666 
L 2450 4666 
L 2450 531 
L 3481 531 
L 3481 0 
L 794 0 
L 794 531 
z
" transform="scale(0.015625)"/>
       </defs>
       <use xlink:href="#DejaVuSans-31"/>
       <use xlink:href="#DejaVuSans-2e" transform="translate(63.623047 0)"/>
       <use xlink:href="#DejaVuSans-30" transform="translate(95.410156 0)"/>
       <use xlink:href="#DejaVuSans-30" transform="translate(159.033203 0)"/>
      </g>
     </g>
    </g>
    <g id="xtick_6">
     <g id="line2d_6">
      <g>
       <use xlink:href="#md405308e44" x="301.73929" y="307.6" style="stroke: #000000; stroke-width: 0.8"/>
      </g>
     </g>
     <g id="text_6">
      <!-- 1.25 -->
      <g transform="translate(290.606478 322.198437) scale(0.1 -0.1)">
       <use xlink:href="#DejaVuSans-31"/>
       <use xlink:href="#DejaVuSans-2e" transform="translate(63.623047 0)"/>
       <use xlink:href="#DejaVuSans-32" transform="translate(95.410156 0)"/>
       <use xlink:href="#DejaVuSans-35" transform="translate(159.033203 0)"/>
      </g>
     </g>
    </g>
    <g id="xtick_7">
     <g id="line2d_7">
      <g>
       <use xlink:href="#md405308e44" x="345.346603" y="307.6" style="stroke: #000000; stroke-width: 0.8"/>
      </g>
     </g>
     <g id="text_7">
      <!-- 1.50 -->
      <g transform="translate(334.21379 322.198437) scale(0.1 -0.1)">
       <use xlink:href="#DejaVuSans-31"/>
       <use xlink:href="#DejaVuSans-2e" transform="translate(63.623047 0)"/>
       <use xlink:href="#DejaVuSans-35" transform="translate(95.410156 0)"/>
       <use xlink:href="#DejaVuSans-30" transform="translate(159.033203 0)"/>
      </g>
     </g>
    </g>
    <g id="xtick_8">
     <g id="line2d_8">
      <g>
       <use xlink:href="#md405308e44" x="388.953915" y="307.6" style="stroke: #000000; stroke-width: 0.8"/>
      </g>
     </g>
     <g id="text_8">
      <!-- 1.75 -->
      <g transform="translate(377.821103 322.198437) scale(0.1 -0.1)">
       <use xlink:href="#DejaVuSans-31"/>
       <use xlink:href="#DejaVuSans-2e" transform="translate(63.623047 0)"/>
       <use xlink:href="#DejaVuSans-37" transform="translate(95.410156 0)"/>
       <use xlink:href="#DejaVuSans-35" transform="translate(159.033203 0)"/>
      </g>
     </g>
    </g>
    <g id="xtick_9">
     <g id="line2d_9">
      <g>
       <use xlink:href="#md405308e44" x="432.561228" y="307.6" style="stroke: #000000; stroke-width: 0.8"/>
      </g>
     </g>
     <g id="text_9">
      <!-- 2.00 -->
      <g transform="translate(421.428416 322.198437) scale(0.1 -0.1)">
       <use xlink:href="#DejaVuSans-32"/>
       <use xlink:href="#DejaVuSans-2e" transform="translate(63.623047 0)"/>
       <use xlink:href="#DejaVuSans-30" transform="translate(95.410156 0)"/>
       <use xlink:href="#DejaVuSans-30" transform="translate(159.033203 0)"/>
      </g>
     </g>
    </g>
    <g id="text_10">
     <!-- $t$ (s) -->
     <g transform="translate(248.03 335.876562) scale(0.1 -0.1)">
      <defs>
       <path id="DejaVuSans-Oblique-74" d="M 2706 3500 
L 2619 3053 
L 1472 3053 
L 1100 1153 
Q 1081 1047 1072 975 
Q 1063 903 1063 863 
Q 1063 663 1183 572 
Q 1303 481 1569 481 
L 2150 481 
L 2053 0 
L 1503 0 
Q 991 0 739 200 
Q 488 400 488 806 
Q 488 878 497 964 
Q 506 1050 525 1153 
L 897 3053 
L 409 3053 
L 500 3500 
L 978 3500 
L 1172 4494 
L 1747 4494 
L 1556 3500 
L 2706 3500 
z
" transform="scale(0.015625)"/>
       <path id="DejaVuSans-20" transform="scale(0.015625)"/>
       <path id="DejaVuSans-28" d="M 1984 4856 
Q 1566 4138 1362 3434 
Q 1159 2731 1159 2009 
Q 1159 1288 1364 580 
Q 1569 -128 1984 -844 
L 1484 -844 
Q 1016 -109 783 600 
Q 550 1309 550 2009 
Q 550 2706 781 3412 
Q 1013 4119 1484 4856 
L 1984 4856 
z
" transform="scale(0.015625)"/>
       <path id="DejaVuSans-73" d="M 2834 3397 
L 2834 2853 
Q 2591 2978 2328 3040 
Q 2066 3103 1784 3103 
Q 1356 3103 1142 2972 
Q 928 2841 928 2578 
Q 928 2378 1081 2264 
Q 1234 2150 1697 2047 
L 1894 2003 
Q 2506 1872 2764 1633 
Q 3022 1394 3022 966 
Q 3022 478 2636 193 
Q 2250 -91 1575 -91 
Q 1294 -91 989 -36 
Q 684 19 347 128 
L 347 722 
Q 666 556 975 473 
Q 1284 391 1588 391 
Q 1994 391 2212 530 
Q 2431 669 2431 922 
Q 2431 1156 2273 1281 
Q 2116 1406 1581 1522 
L 1381 1569 
Q 847 1681 609 1914 
Q 372 2147 372 2553 
Q 372 3047 722 3315 
Q 1072 3584 1716 3584 
Q 2034 3584 2315 3537 
Q 2597 3491 2834 3397 
z
" transform="scale(0.015625)"/>
       <path id="DejaVuSans-29" d="M 513 4856 
L 1013 4856 
Q 1481 4119 1714 3412 
Q 1947 2706 1947 2009 
Q 1947 1309 1714 600 
Q 1481 -109 1013 -844 
L 513 -844 
Q 928 -128 1133 580 
Q 1338 1288 1338 2009 
Q 1338 2731 1133 3434 
Q 928 4138 513 4856 
z
" transform="scale(0.015625)"/>
      </defs>
      <use xlink:href="#DejaVuSans-Oblique-74" transform="translate(0 0.125)"/>
      <use xlink:href="#DejaVuSans-20" transform="translate(39.208984 0.125)"/>
      <use xlink:href="#DejaVuSans-28" transform="translate(70.996094 0.125)"/>
      <use xlink:href="#DejaVuSans-73" transform="translate(110.009766 0.125)"/>
      <use xlink:href="#DejaVuSans-29" transform="translate(162.109375 0.125)"/>
     </g>
    </g>
   </g>
   <g id="matplotlib.axis_2">
    <g id="ytick_1">
     <g id="line2d_10">
      <defs>
       <path id="m8eea43570a" d="M 0 0 
L -3.5 0 
" style="stroke: #000000; stroke-width: 0.8"/>
      </defs>
      <g>
       <use xlink:href="#m8eea43570a" x="66.26" y="294.553545" style="stroke: #000000; stroke-width: 0.8"/>
      </g>
     </g>
     <g id="text_11">
      <!-- −4000 -->
      <g transform="translate(25.430313 298.352763) scale(0.1 -0.1)">
       <defs>
        <path id="DejaVuSans-2212" d="M 678 2272 
L 4684 2272 
L 4684 1741 
L 678 1741 
L 678 2272 
z
" transform="scale(0.015625)"/>
        <path id="DejaVuSans-34" d="M 2419 4116 
L 825 1625 
L 2419 1625 
L 2419 4116 
z
M 2253 4666 
L 3047 4666 
L 3047 1625 
L 3713 1625 
L 3713 1100 
L 3047 1100 
L 3047 0 
L 2419 0 
L 2419 1100 
L 313 1100 
L 313 1709 
L 2253 4666 
z
" transform="scale(0.015625)"/>
       </defs>
       <use xlink:href="#DejaVuSans-2212"/>
       <use xlink:href="#DejaVuSans-34" transform="translate(83.789062 0)"/>
       <use xlink:href="#DejaVuSans-30" transform="translate(147.412109 0)"/>
       <use xlink:href="#DejaVuSans-30" transform="translate(211.035156 0)"/>
       <use xlink:href="#DejaVuSans-30" transform="translate(274.658203 0)"/>
      </g>
     </g>
    </g>
    <g id="ytick_2">
     <g id="line2d_11">
      <g>
       <use xlink:href="#m8eea43570a" x="66.26" y="262.725158" style="stroke: #000000; stroke-width: 0.8"/>
      </g>
     </g>
     <g id="text_12">
      <!-- −3000 -->
      <g transform="translate(25.430313 266.524377) scale(0.1 -0.1)">
       <defs>
        <path id="DejaVuSans-33" d="M 2597 2516 
Q 3050 2419 3304 2112 
Q 3559 1806 3559 1356 
Q 3559 666 3084 287 
Q 2609 -91 1734 -91 
Q 1441 -91 1130 -33 
Q 819 25 488 141 
L 488 750 
Q 750 597 1062 519 
Q 1375 441 1716 441 
Q 2309 441 2620 675 
Q 2931 909 2931 1356 
Q 2931 1769 2642 2001 
Q 2353 2234 1838 2234 
L 1294 2234 
L 1294 2753 
L 1863 2753 
Q 2328 2753 2575 2939 
Q 2822 3125 2822 3475 
Q 2822 3834 2567 4026 
Q 2313 4219 1838 4219 
Q 1578 4219 1281 4162 
Q 984 4106 628 3988 
L 628 4550 
Q 988 4650 1302 4700 
Q 1616 4750 1894 4750 
Q 2613 4750 3031 4423 
Q 3450 4097 3450 3541 
Q 3450 3153 3228 2886 
Q 3006 2619 2597 2516 
z
" transform="scale(0.015625)"/>
       </defs>
       <use xlink:href="#DejaVuSans-2212"/>
       <use xlink:href="#DejaVuSans-33" transform="translate(83.789062 0)"/>
       <use xlink:href="#DejaVuSans-30" transform="translate(147.412109 0)"/>
       <use xlink:href="#DejaVuSans-30" transform="translate(211.035156 0)"/>
       <use xlink:href="#DejaVuSans-30" transform="translate(274.658203 0)"/>
      </g>
     </g>
    </g>
    <g id="ytick_3">
     <g id="line2d_12">
      <g>
       <use xlink:href="#m8eea43570a" x="66.26" y="230.896772" style="stroke: #000000; stroke-width: 0.8"/>
      </g>
     </g>
     <g id="text_13">
      <!-- −2000 -->
      <g transform="translate(25.430313 234.695991) scale(0.1 -0.1)">
       <use xlink:href="#DejaVuSans-2212"/>
       <use xlink:href="#DejaVuSans-32" transform="translate(83.789062 0)"/>
       <use xlink:href="#DejaVuSans-30" transform="translate(147.412109 0)"/>
       <use xlink:href="#DejaVuSans-30" transform="translate(211.035156 0)"/>
       <use xlink:href="#DejaVuSans-30" transform="translate(274.658203 0)"/>
      </g>
     </g>
    </g>
    <g id="ytick_4">
     <g id="line2d_13">
      <g>
       <use xlink:href="#m8eea43570a" x="66.26" y="199.068386" style="stroke: #000000; stroke-width: 0.8"/>
      </g>
     </g>
     <g id="text_14">
      <!-- −1000 -->
      <g transform="translate(25.430313 202.867605) scale(0.1 -0.1)">
       <use xlink:href="#DejaVuSans-2212"/>
       <use xlink:href="#DejaVuSans-31" transform="translate(83.789062 0)"/>
       <use xlink:href="#DejaVuSans-30" transform="translate(147.412109 0)"/>
       <use xlink:href="#DejaVuSans-30" transform="translate(211.035156 0)"/>
       <use xlink:href="#DejaVuSans-30" transform="translate(274.658203 0)"/>
      </g>
     </g>
    </g>
    <g id="ytick_5">
     <g id="line2d_14">
      <g>
       <use xlink:href="#m8eea43570a" x="66.26" y="167.24" style="stroke: #000000; stroke-width: 0.8"/>
      </g>
     </g>
     <g id="text_15">
      <!-- 0 -->
      <g transform="translate(52.8975 171.039219) scale(0.1 -0.1)">
       <use xlink:href="#DejaVuSans-30"/>
      </g>
     </g>
    </g>
    <g id="ytick_6">
     <g id="line2d_15">
      <g>
       <use xlink:href="#m8eea43570a" x="66.26" y="135.411614" style="stroke: #000000; stroke-width: 0.8"/>
      </g>
     </g>
     <g id="text_16">
      <!-- 1000 -->
      <g transform="translate(33.81 139.210833) scale(0.1 -0.1)">
       <use xlink:href="#DejaVuSans-31"/>
       <use xlink:href="#DejaVuSans-30" transform="translate(63.623047 0)"/>
       <use xlink:href="#DejaVuSans-30" transform="translate(127.246094 0)"/>
       <use xlink:href="#DejaVuSans-30" transform="translate(190.869141 0)"/>
      </g>
     </g>
    </g>
    <g id="ytick_7">
     <g id="line2d_16">
      <g>
       <use xlink:href="#m8eea43570a" x="66.26" y="103.583228" style="stroke: #000000; stroke-width: 0.8"/>
      </g>
     </g>
     <g id="text_17">
      <!-- 2000 -->
      <g transform="translate(33.81 107.382446) scale(0.1 -0.1)">
       <use xlink:href="#DejaVuSans-32"/>
       <use xlink:href="#DejaVuSans-30" transform="translate(63.623047 0)"/>
       <use xlink:href="#DejaVuSans-30" transform="translate(127.246094 0)"/>
       <use xlink:href="#DejaVuSans-30" transform="translate(190.869141 0)"/>
      </g>
     </g>
    </g>
    <g id="ytick_8">
     <g id="line2d_17">
      <g>
       <use xlink:href="#m8eea43570a" x="66.26" y="71.754842" style="stroke: #000000; stroke-width: 0.8"/>
      </g>
     </g>
     <g id="text_18">
      <!-- 3000 -->
      <g transform="translate(33.81 75.55406) scale(0.1 -0.1)">
       <use xlink:href="#DejaVuSans-33"/>
       <use xlink:href="#DejaVuSans-30" transform="translate(63.623047 0)"/>
       <use xlink:href="#DejaVuSans-30" transform="translate(127.246094 0)"/>
       <use xlink:href="#DejaVuSans-30" transform="translate(190.869141 0)"/>
      </g>
     </g>
    </g>
    <g id="ytick_9">
     <g id="line2d_18">
      <g>
       <use xlink:href="#m8eea43570a" x="66.26" y="39.926455" style="stroke: #000000; stroke-width: 0.8"/>
      </g>
     </g>
     <g id="text_19">
      <!-- 4000 -->
      <g transform="translate(33.81 43.725674) scale(0.1 -0.1)">
       <use xlink:href="#DejaVuSans-34"/>
       <use xlink:href="#DejaVuSans-30" transform="translate(63.623047 0)"/>
       <use xlink:href="#DejaVuSans-30" transform="translate(127.246094 0)"/>
       <use xlink:href="#DejaVuSans-30" transform="translate(190.869141 0)"/>
      </g>
     </g>
    </g>
    <g id="text_20">
     <!-- $y$ -->
     <g transform="translate(19.330313 170.24) rotate(-90) scale(0.1 -0.1)">
      <defs>
       <path id="DejaVuSans-Oblique-79" d="M 1588 -325 
Q 1188 -997 936 -1164 
Q 684 -1331 294 -1331 
L -159 -1331 
L -63 -850 
L 269 -850 
Q 509 -850 678 -719 
Q 847 -588 1056 -206 
L 1234 128 
L 459 3500 
L 1069 3500 
L 1650 819 
L 3256 3500 
L 3859 3500 
L 1588 -325 
z
" transform="scale(0.015625)"/>
      </defs>
      <use xlink:href="#DejaVuSans-Oblique-79" transform="translate(0 0.3125)"/>
     </g>
    </g>
   </g>
   <g id="line2d_19">
    <path d="M 83.702727 167.24 
L 83.813476 165.45761 
L 87.254597 111.858608 
L 87.41281 109.694278 
L 87.66595 106.256812 
L 88.243425 98.745313 
L 88.457012 96.135385 
L 88.87232 91.233814 
L 88.884186 91.138329 
L 89.244119 87.127952 
L 89.255985 87.032467 
L 89.568455 83.785972 
L 90.260634 77.324809 
L 90.493998 75.351449 
L 91.447228 68.572003 
L 91.467004 68.476518 
L 91.834848 66.407673 
L 91.854625 66.312188 
L 92.135452 64.943567 
L 92.167095 64.848082 
L 92.396503 63.89323 
L 92.420234 63.797745 
L 92.621955 63.065692 
L 92.649643 62.970207 
L 92.827632 62.429124 
L 92.863229 62.333639 
L 93.025397 61.888042 
L 93.029352 61.91987 
L 93.112414 61.697072 
L 93.167788 61.601586 
L 93.314135 61.315131 
L 93.369509 61.219646 
L 93.507945 60.996847 
L 93.511901 61.028675 
L 93.587051 60.901362 
L 93.606828 60.901362 
L 93.709666 60.805877 
L 93.832281 60.710392 
L 94.465131 60.805877 
L 94.591701 60.965019 
L 94.603567 60.93319 
L 94.678718 61.060504 
L 94.690583 61.060504 
L 94.761779 61.155989 
L 94.900215 61.410616 
L 94.90417 61.378788 
L 94.979321 61.569758 
L 94.987232 61.569758 
L 95.137534 61.888042 
L 95.181042 61.983527 
L 95.351121 62.460953 
L 95.355076 62.429124 
L 95.422316 62.651923 
L 95.434182 62.651923 
L 95.620082 63.256663 
L 95.651724 63.352148 
L 95.8574 64.116029 
L 95.885088 64.211514 
L 96.11054 65.134537 
L 96.138228 65.230022 
L 96.399278 66.439501 
L 96.419055 66.534986 
L 96.727569 68.126406 
L 96.74339 68.221891 
L 97.146832 70.577191 
L 97.166609 70.672676 
L 97.88252 75.54242 
L 97.894386 75.637905 
L 99.800846 91.870382 
L 100.077718 94.543966 
L 100.564221 99.350052 
L 100.864825 102.405577 
L 101.280133 106.638753 
L 101.588647 109.85342 
L 101.600513 109.948905 
L 101.916938 113.259057 
L 102.300603 117.237605 
L 102.617028 120.547758 
L 103.024425 124.717276 
L 103.33294 127.900115 
L 103.344806 127.9956 
L 103.811532 132.642544 
L 104.09236 135.379785 
L 104.776629 141.777291 
L 105.029768 144.068935 
L 107.050933 159.442045 
L 107.070709 159.537531 
L 107.252654 160.683352 
L 107.27243 160.778838 
L 107.64423 162.879511 
L 107.667961 162.974996 
L 107.968565 164.502759 
L 107.996252 164.598244 
L 108.257303 165.807723 
L 108.28499 165.903208 
L 108.510443 166.826231 
L 108.542085 166.921716 
L 108.747762 167.685597 
L 108.779404 167.781083 
L 108.969259 168.41765 
L 109.012767 168.513135 
L 109.147248 168.926904 
L 109.190757 169.02239 
L 109.35688 169.467987 
L 109.404343 169.563472 
L 109.554645 169.881756 
L 109.61002 169.977241 
L 109.756366 170.263697 
L 109.839428 170.359182 
L 109.977864 170.581981 
L 110.072791 170.677466 
L 110.203316 170.836608 
L 110.37735 170.932093 
L 110.492054 170.99575 
L 110.496009 170.963921 
L 110.539518 171.027578 
L 110.598848 171.027578 
L 110.990423 170.932093 
L 111.113038 170.836608 
L 111.120949 170.868436 
L 111.180278 170.772951 
L 111.211921 170.772951 
L 111.334536 170.613809 
L 111.338491 170.645637 
L 111.413642 170.550152 
L 111.548122 170.327353 
L 111.552078 170.359182 
L 111.627229 170.20004 
L 111.64305 170.20004 
L 111.70238 170.104555 
L 111.848726 169.818099 
L 111.900145 169.722614 
L 112.058358 169.340673 
L 112.062313 169.372502 
L 112.141419 169.149703 
L 112.307542 168.704106 
L 112.347095 168.608621 
L 112.525084 168.067538 
L 112.556727 167.972053 
L 112.750537 167.303657 
L 112.786135 167.208172 
L 112.995766 166.412462 
L 113.027409 166.316977 
L 113.252862 165.362125 
L 113.256817 165.393954 
L 113.324057 165.07567 
L 113.581153 163.898019 
L 113.60884 163.802534 
L 113.909443 162.274772 
L 113.92922 162.179287 
L 114.257511 160.428725 
L 114.277287 160.33324 
L 114.684685 157.946111 
L 114.700506 157.850626 
L 115.234473 154.444989 
L 115.250294 154.349504 
L 116.136284 148.11114 
L 116.152105 148.015655 
L 116.357781 146.456064 
L 116.373603 146.360579 
L 119.945249 118.510741 
L 119.957115 118.447084 
L 120.158836 116.95115 
L 120.170702 116.887493 
L 120.368468 115.455216 
L 120.384289 115.391559 
L 120.582054 113.99111 
L 120.59392 113.927453 
L 120.787731 112.590661 
L 120.807507 112.495176 
L 120.993407 111.253869 
L 121.009228 111.158384 
L 121.487821 108.198344 
L 121.507597 108.102859 
L 121.883352 105.970357 
L 121.903129 105.874872 
L 122.211643 104.283452 
L 122.23142 104.187967 
L 122.500381 102.914832 
L 122.520157 102.819346 
L 122.761431 101.76901 
L 122.793074 101.673525 
L 123.018527 100.750501 
L 123.050169 100.655016 
L 123.243979 99.98662 
L 123.275622 99.891135 
L 123.465477 99.254567 
L 123.508985 99.159082 
L 123.683019 98.649828 
L 123.734438 98.554343 
L 123.896606 98.140574 
L 123.95198 98.045089 
L 124.102282 97.726805 
L 124.165567 97.63132 
L 124.304003 97.376692 
L 124.311914 97.408521 
L 124.379154 97.281207 
L 124.402886 97.281207 
L 124.533411 97.122065 
L 124.632294 97.02658 
L 124.750953 96.931095 
L 124.754908 96.962923 
L 124.849836 96.867438 
L 124.857747 96.899267 
L 124.972451 96.83561 
L 125.079244 96.867438 
L 125.083199 96.83561 
L 125.348205 96.931095 
L 125.47082 97.02658 
L 125.589479 97.122065 
L 125.720005 97.281207 
L 125.787245 97.376692 
L 125.925681 97.63132 
L 125.929636 97.599491 
L 126.016653 97.790461 
L 126.072027 97.885947 
L 126.226284 98.236059 
L 126.261882 98.331544 
L 126.42405 98.777141 
L 126.428005 98.745313 
L 126.503156 98.99994 
L 126.507112 98.99994 
L 126.689056 99.572851 
L 126.716743 99.668336 
L 126.918464 100.432218 
L 126.922419 100.400389 
L 126.993615 100.718673 
L 127.025257 100.814158 
L 127.278397 101.95998 
L 127.302129 102.055465 
L 127.582956 103.424086 
L 127.606688 103.519571 
L 127.776767 104.474423 
L 128.255359 107.434462 
L 128.271181 107.529948 
L 130.106445 123.189514 
L 130.430781 126.626979 
L 130.731385 129.937131 
L 131.134826 134.679561 
L 131.146692 134.775046 
L 131.637151 140.886096 
L 131.827006 143.305054 
L 132.487543 152.153345 
L 132.6418 154.285847 
L 132.910761 158.105253 
L 133.057108 160.174098 
L 134.722294 185.19121 
L 134.844909 187.069085 
L 135.157378 191.938828 
L 137.550342 228.668785 
L 137.684823 230.642145 
L 138.634098 244.137381 
L 138.796265 246.33354 
L 139.393517 254.163323 
L 139.591283 256.614108 
L 139.816736 259.383178 
L 140.050099 262.152247 
L 140.421898 266.353594 
L 140.754145 269.918374 
L 141.054748 272.973899 
L 143.158974 289.015405 
L 143.182706 289.11089 
L 143.344874 289.938429 
L 143.36465 290.033914 
L 143.61779 291.179736 
L 143.641522 291.275221 
L 143.855109 292.102759 
L 143.882796 292.198244 
L 144.072651 292.834812 
L 144.100338 292.898468 
L 144.234819 293.312237 
L 144.278327 293.407723 
L 144.440495 293.821492 
L 144.499825 293.916977 
L 144.650127 294.235261 
L 144.733188 294.330746 
L 144.871624 294.553545 
L 144.982373 294.64903 
L 145.104988 294.744515 
L 145.733882 294.64903 
L 145.856497 294.489888 
L 145.860452 294.521716 
L 145.931648 294.426231 
L 146.070084 294.171604 
L 146.074039 294.203432 
L 146.157101 294.012462 
L 146.161056 294.012462 
L 146.21643 293.916977 
L 146.370687 293.566865 
L 146.414196 293.471379 
L 146.584274 292.993954 
L 146.611961 292.898468 
L 146.797861 292.293729 
L 146.829504 292.198244 
L 147.039135 291.402534 
L 147.062867 291.307049 
L 147.308096 290.224884 
L 147.335784 290.129399 
L 147.636387 288.601636 
L 147.656164 288.506151 
L 148.04774 286.214507 
L 148.051695 286.246336 
L 148.111025 285.832567 
L 150.34182 266.990162 
L 150.662201 263.616353 
L 150.962804 260.306201 
L 151.34647 255.913884 
L 151.591699 253.049329 
L 152.04656 247.51119 
L 152.252236 244.964919 
L 152.774337 238.344615 
L 152.956282 235.989314 
L 153.545623 228.286845 
L 153.723612 225.963372 
L 153.972797 222.621392 
L 154.613557 214.091384 
L 154.787591 211.799741 
L 155.41253 203.52436 
L 155.590519 201.232716 
L 155.831793 198.081706 
L 156.021648 195.662749 
L 156.531883 189.233415 
L 156.74547 186.623487 
L 156.970923 183.854418 
L 157.212197 181.021691 
L 157.425784 178.507249 
L 157.69079 175.483552 
L 158.042813 171.600489 
L 158.402746 167.812911 
L 158.70335 164.757386 
L 158.715216 164.661901 
L 158.996043 161.92466 
L 159.007909 161.829174 
L 159.268959 159.410217 
L 161.05676 145.914981 
L 161.076537 145.819496 
L 161.444381 143.750651 
L 161.464157 143.655166 
L 161.74894 142.254717 
L 161.768716 142.19106 
L 161.922973 141.490836 
L 162.152382 140.535984 
L 162.184024 140.440499 
L 162.3897 139.676618 
L 162.417387 139.581132 
L 162.603287 138.976393 
L 162.638885 138.880908 
L 162.812919 138.371654 
L 162.860382 138.276169 
L 163.018595 137.894228 
L 163.070014 137.798743 
L 163.220316 137.480459 
L 163.27569 137.384974 
L 163.414126 137.162175 
L 163.481366 137.06669 
L 163.611892 136.907548 
L 163.718685 136.812063 
L 163.845255 136.684749 
L 163.84921 136.716578 
L 163.892719 136.652921 
L 163.952048 136.652921 
L 164.648183 136.748406 
L 164.774753 136.87572 
L 164.873636 136.971205 
L 165.008117 137.162175 
L 165.075357 137.25766 
L 165.213793 137.512287 
L 165.221703 137.480459 
L 165.292899 137.639601 
L 165.304765 137.639601 
L 165.455067 137.957885 
L 165.502531 138.05337 
L 165.660743 138.467139 
L 165.664698 138.435311 
L 165.739849 138.658109 
L 165.74776 138.658109 
L 165.787313 138.753594 
L 165.965302 139.294677 
L 166.004855 139.390162 
L 166.1868 139.963073 
L 166.214487 140.058558 
L 166.412252 140.758783 
L 166.443895 140.854268 
L 166.661437 141.713634 
L 166.693079 141.809119 
L 166.930398 142.827628 
L 166.95413 142.923113 
L 167.211225 144.100763 
L 167.234957 144.196248 
L 167.51974 145.596697 
L 167.543471 145.692183 
L 167.875718 147.474572 
L 167.89945 147.570057 
L 168.069528 148.556737 
L 168.09326 148.652222 
L 168.512523 151.134837 
L 168.528344 151.198493 
L 168.710288 152.344315 
L 168.730065 152.4398 
L 169.283809 156.00458 
L 169.29963 156.100065 
L 169.99181 160.778838 
L 170.007631 160.874323 
L 170.869889 166.921716 
L 170.88571 167.017201 
L 171.747968 173.064595 
L 171.759834 173.128251 
L 171.953644 174.496872 
L 171.969465 174.560529 
L 172.163276 175.897321 
L 172.79217 180.06684 
L 172.807992 180.130496 
L 172.993891 181.339975 
L 173.456663 184.172701 
L 173.476439 184.268187 
L 173.86406 186.496174 
L 173.883836 186.591659 
L 174.053915 187.54651 
L 174.077647 187.641996 
L 174.394072 189.297072 
L 174.417803 189.392557 
L 174.694675 190.729349 
L 174.714452 190.793006 
L 174.868709 191.49323 
L 175.106028 192.511739 
L 175.12976 192.575395 
L 175.276106 193.180135 
L 175.307749 193.27562 
L 175.521335 194.103158 
L 175.552978 194.198643 
L 175.742833 194.835211 
L 175.782386 194.930696 
L 175.960375 195.471778 
L 175.999928 195.567264 
L 176.170007 196.044689 
L 176.173962 196.012861 
L 176.245157 196.23566 
L 176.257023 196.23566 
L 176.292621 196.331145 
L 176.442923 196.649429 
L 176.490387 196.744914 
L 176.632778 197.031369 
L 176.636733 196.999541 
L 176.72375 197.190511 
L 176.727705 197.158683 
L 176.862186 197.381482 
L 176.866141 197.349653 
L 176.953158 197.508795 
L 176.957114 197.476967 
L 177.087639 197.636109 
L 177.206298 197.731594 
L 177.328913 197.827079 
L 177.332868 197.795251 
L 177.368466 197.858907 
L 177.435706 197.858907 
L 178.029003 197.763422 
L 178.155573 197.636109 
L 178.262366 197.540624 
L 178.396847 197.349653 
L 178.468043 197.254168 
L 178.610434 196.999541 
L 178.665808 196.904056 
L 178.820065 196.553944 
L 178.87544 196.458458 
L 179.033652 196.044689 
L 179.037608 196.076518 
L 179.112759 195.821891 
L 179.116714 195.821891 
L 179.160222 195.726406 
L 179.342167 195.153495 
L 179.373809 195.058009 
L 179.57553 194.325957 
L 179.603217 194.230471 
L 179.820759 193.371105 
L 179.848447 193.27562 
L 180.093676 192.193455 
L 180.113452 192.09797 
L 180.406145 190.633864 
L 180.425922 190.538379 
L 180.809587 188.34222 
L 180.829364 188.246735 
L 181.462214 184.045388 
L 181.47408 183.981731 
L 181.679756 182.453969 
L 183.040383 170.613809 
L 183.333076 167.685597 
L 183.704876 163.802534 
L 184.048988 160.046785 
L 184.325859 156.927603 
L 184.733257 152.153345 
L 184.970575 149.352447 
L 185.196028 146.551549 
L 185.40566 143.97345 
L 185.927761 137.353145 
L 186.11366 134.966016 
L 186.710912 127.136233 
L 186.888902 124.812761 
L 187.134131 121.534438 
L 187.304209 119.274622 
L 187.941014 110.808271 
L 188.107138 108.612113 
L 188.352367 105.333789 
L 188.538267 102.94666 
L 189.119697 95.371504 
L 189.313508 92.920718 
L 189.819788 86.555041 
L 190.041285 83.881457 
L 190.262782 81.207872 
L 190.666224 76.497271 
L 190.943096 73.378089 
L 191.287208 69.62234 
L 191.686695 65.516478 
L 191.975432 62.651923 
L 194.123167 46.260304 
L 194.142943 46.164819 
L 194.455413 44.541571 
L 194.459368 44.5734 
L 194.522653 44.255116 
L 194.526609 44.255116 
L 194.771838 43.172951 
L 194.79557 43.077466 
L 195.005201 42.281756 
L 195.036844 42.186271 
L 195.222743 41.581532 
L 195.258341 41.486046 
L 195.432375 40.976792 
L 195.43633 41.008621 
L 195.515437 40.785822 
L 195.519392 40.785822 
L 195.5629 40.690337 
L 195.713202 40.372053 
L 195.776487 40.276568 
L 195.914923 40.053769 
L 195.994029 39.958284 
L 196.116644 39.799142 
L 196.120599 39.83097 
L 196.247169 39.735485 
L 196.357918 39.671828 
L 196.361873 39.703657 
L 196.824645 39.799142 
L 196.951215 39.926455 
L 197.030321 40.021941 
L 197.168757 40.244739 
L 197.247863 40.340224 
L 197.40212 40.690337 
L 197.453539 40.785822 
L 197.619662 41.231419 
L 197.65526 41.326904 
L 197.833249 41.867987 
L 197.860936 41.963472 
L 198.058702 42.663697 
L 198.082434 42.759182 
L 198.315797 43.745862 
L 198.34744 43.841347 
L 198.505652 44.605228 
L 198.833943 46.355789 
L 198.857675 46.451275 
L 199.035664 47.53344 
L 201.218996 65.993904 
L 201.571019 69.876967 
L 201.832069 72.868835 
L 202.282975 78.343318 
L 202.480741 80.825932 
L 203.089859 88.846685 
L 203.252026 91.042844 
L 203.513077 94.703108 
L 203.659424 96.740125 
L 203.93234 100.655016 
L 205.763649 128.345712 
L 205.886264 130.223587 
L 208.330647 167.781083 
L 208.469083 169.786271 
L 208.74991 173.892133 
L 208.892301 175.929149 
L 209.691274 187.005428 
L 209.861352 189.265243 
L 210.407185 196.267488 
L 210.620772 198.877416 
L 211.032125 203.747159 
L 211.043991 203.842644 
L 211.403924 207.853021 
L 211.767813 211.672427 
L 212.060506 214.600639 
L 214.152866 230.54666 
L 214.176598 230.642145 
L 214.342721 231.53334 
L 214.358542 231.628825 
L 214.619593 232.838304 
L 214.643324 232.933789 
L 214.872732 233.888641 
L 214.896464 233.984126 
L 215.102141 234.748007 
L 215.133783 234.843492 
L 215.319683 235.48006 
L 215.323638 235.448231 
L 215.402744 235.702859 
L 215.564912 236.148456 
L 215.568867 236.116628 
L 215.647974 236.339426 
L 215.651929 236.339426 
L 215.695437 236.434911 
L 215.845739 236.753195 
L 215.901114 236.84868 
L 216.039549 237.103308 
L 216.043505 237.071479 
L 216.110745 237.198793 
L 216.134477 237.198793 
L 216.265002 237.389763 
L 216.284779 237.357935 
L 216.340153 237.45342 
L 216.363885 237.45342 
L 216.4865 237.548905 
L 217.214277 237.45342 
L 217.340847 237.326106 
L 217.427864 237.230621 
L 217.562345 237.039651 
L 217.621674 236.944166 
L 217.764065 236.689539 
L 217.815484 236.594053 
L 217.961831 236.243941 
L 217.965786 236.27577 
L 218.005339 236.180284 
L 218.171463 235.734687 
L 218.179373 235.766515 
L 218.246613 235.543717 
L 218.258479 235.543717 
L 218.436468 235.002634 
L 218.468111 234.907149 
L 218.657966 234.270581 
L 218.689608 234.175096 
L 218.89924 233.379386 
L 218.930882 233.283901 
L 219.164246 232.297221 
L 219.191933 232.201736 
L 219.452984 230.992257 
L 219.476715 230.928601 
L 219.638883 230.101063 
L 219.65866 230.037406 
L 219.820828 229.178039 
L 219.840604 229.082554 
L 220.188672 227.172851 
L 220.208448 227.077366 
L 220.651443 224.403781 
L 220.67122 224.308296 
L 221.296159 220.170606 
L 221.31198 220.075121 
L 222.660741 210.112836 
L 222.672607 210.049179 
L 222.89015 208.330446 
L 226.030667 183.949903 
L 226.046488 183.854418 
L 226.774266 178.889189 
L 226.790087 178.793704 
L 227.27659 175.770007 
L 227.296367 175.674522 
L 227.470401 174.624186 
L 227.494132 174.5287 
L 227.850111 172.55534 
L 227.869887 172.459855 
L 228.16258 170.99575 
L 228.182357 170.900264 
L 228.443407 169.690786 
L 228.467139 169.595301 
L 228.704458 168.576792 
L 228.72819 168.481307 
L 228.941777 167.653769 
L 228.973419 167.558284 
L 229.171185 166.858059 
L 229.206782 166.762574 
L 229.396637 166.126006 
L 229.400593 166.157835 
L 229.475744 165.903208 
L 229.479699 165.903208 
L 229.515297 165.807723 
L 229.685375 165.330297 
L 229.689331 165.362125 
L 229.760526 165.139327 
L 229.768437 165.139327 
L 229.922694 164.789214 
L 229.978068 164.693729 
L 230.124415 164.375445 
L 230.12837 164.407274 
L 230.199566 164.248132 
L 230.215387 164.248132 
L 230.353823 164.025333 
L 230.436884 163.929848 
L 230.56741 163.770706 
L 230.662337 163.675221 
L 230.784952 163.579736 
L 231.01436 163.48425 
L 231.125109 163.452422 
L 231.227947 163.48425 
L 231.235857 163.452422 
L 231.492953 163.547907 
L 231.619523 163.675221 
L 231.631389 163.643392 
L 231.718405 163.770706 
L 231.722361 163.738878 
L 231.821244 163.834363 
L 231.959679 164.057161 
L 232.038786 164.152647 
L 232.181177 164.407274 
L 232.244462 164.502759 
L 232.398719 164.852871 
L 232.458049 164.948356 
L 232.588574 165.298468 
L 232.636038 165.393954 
L 232.810072 165.903208 
L 232.845669 165.998693 
L 233.031569 166.603432 
L 233.063211 166.698917 
L 233.264932 167.43097 
L 233.288664 167.526455 
L 233.506206 168.385822 
L 233.533894 168.481307 
L 233.783078 169.595301 
L 233.802855 169.690786 
L 234.091593 171.123063 
L 234.111369 171.18672 
L 234.277492 172.077915 
L 234.676979 174.401387 
L 234.696755 174.496872 
L 235.305873 178.507249 
L 235.321695 178.602734 
L 237.67115 198.39999 
L 237.951977 201.137231 
L 238.43057 205.879661 
L 238.735129 208.998843 
L 239.150436 213.232018 
L 239.462906 216.510342 
L 239.474772 216.605827 
L 239.791197 219.915979 
L 240.166951 223.830871 
L 240.479421 227.077366 
L 240.902639 231.374198 
L 241.203243 234.429723 
L 241.677881 239.140324 
L 241.958708 241.877565 
L 242.694396 248.68884 
L 242.939625 250.85317 
L 242.955446 250.948656 
L 243.192765 252.985672 
L 244.573169 263.202584 
L 244.58899 263.298069 
L 245.024074 265.907997 
L 245.043851 266.003482 
L 245.364231 267.690387 
L 245.384008 267.785872 
L 245.652969 269.059007 
L 245.676701 269.154492 
L 245.910064 270.141172 
L 245.937751 270.236658 
L 246.139472 270.96871 
L 246.167159 271.064196 
L 246.357014 271.700763 
L 246.36097 271.668935 
L 246.436121 271.923562 
L 246.440076 271.923562 
L 246.475674 272.019047 
L 246.641797 272.464645 
L 246.689261 272.56013 
L 246.839562 272.910242 
L 246.843518 272.878414 
L 246.918669 273.069384 
L 246.926579 273.069384 
L 247.065015 273.292183 
L 247.136211 273.387668 
L 247.266736 273.578638 
L 247.270691 273.54681 
L 247.345842 273.674123 
L 247.365619 273.642295 
L 247.488234 273.73778 
L 248.176458 273.642295 
L 248.306983 273.483153 
L 248.390045 273.387668 
L 248.528481 273.164869 
L 248.583855 273.069384 
L 248.734157 272.7511 
L 248.777665 272.655615 
L 248.943788 272.210017 
L 248.991252 272.114532 
L 249.173196 271.541621 
L 249.204839 271.446136 
L 249.40656 270.714083 
L 249.430292 270.618598 
L 249.651789 269.727403 
L 249.671566 269.631918 
L 249.940527 268.358783 
L 249.960303 268.263298 
L 250.304416 266.385423 
L 250.324192 266.289938 
L 250.953087 262.120419 
L 250.964953 262.056762 
L 251.174584 260.465343 
L 252.218787 251.171454 
L 252.527301 247.988616 
L 252.843726 244.55115 
L 253.235302 240.031519 
L 253.243212 239.967862 
L 253.713894 234.175096 
L 253.903749 231.756139 
L 254.60384 222.27128 
L 254.754141 220.170606 
L 260.766215 125.194702 
L 260.892785 123.316827 
L 261.181523 119.019995 
L 261.323914 116.982978 
L 262.134753 105.71573 
L 262.304832 103.455914 
L 262.822977 96.899267 
L 263.052386 94.162025 
L 263.440006 89.674223 
L 263.451872 89.578738 
L 263.792029 85.886645 
L 264.258756 81.239701 
L 264.523762 78.757087 
L 264.535627 78.661601 
L 265.963495 68.062749 
L 265.983272 67.967264 
L 266.15335 67.012412 
L 266.457909 65.452821 
L 266.481641 65.357336 
L 266.730826 64.243342 
L 266.762468 64.147857 
L 266.976055 63.320319 
L 267.003742 63.224834 
L 267.193597 62.588266 
L 267.23315 62.492781 
L 267.399273 62.047184 
L 267.438826 61.951699 
L 267.593083 61.601586 
L 267.640547 61.506101 
L 267.786894 61.219646 
L 267.790849 61.251474 
L 267.866 61.092332 
L 267.881821 61.092332 
L 267.956972 60.996847 
L 268.087497 60.837705 
L 268.218023 60.74222 
L 268.336682 60.678563 
L 268.846917 60.774048 
L 268.973487 60.901362 
L 269.076325 60.996847 
L 269.214761 61.219646 
L 269.285957 61.315131 
L 269.428348 61.601586 
L 269.432303 61.569758 
L 269.499544 61.760728 
L 269.515365 61.760728 
L 269.677533 62.174497 
L 269.681488 62.142669 
L 269.760594 62.397296 
L 269.804103 62.492781 
L 269.982092 63.033864 
L 270.01769 63.129349 
L 270.215455 63.829573 
L 270.247098 63.925059 
L 270.468595 64.848082 
L 270.47255 64.816253 
L 270.539791 65.134537 
L 270.543746 65.134537 
L 270.567478 65.230022 
L 270.828529 66.439501 
L 270.848305 66.534986 
L 271.156819 68.126406 
L 271.172641 68.221891 
L 271.576082 70.577191 
L 271.595859 70.672676 
L 272.31177 75.54242 
L 272.323636 75.637905 
L 274.230097 91.870382 
L 274.506969 94.543966 
L 274.993472 99.350052 
L 275.294076 102.405577 
L 275.709383 106.638753 
L 276.017898 109.85342 
L 276.029764 109.948905 
L 276.346188 113.259057 
L 276.729854 117.237605 
L 277.046279 120.547758 
L 277.453676 124.717276 
L 277.76219 127.900115 
L 277.774056 127.9956 
L 278.240783 132.642544 
L 278.52161 135.379785 
L 279.205879 141.777291 
L 279.459019 144.068935 
L 281.480183 159.442045 
L 281.49996 159.537531 
L 281.681904 160.683352 
L 281.701681 160.778838 
L 282.07348 162.879511 
L 282.097212 162.974996 
L 282.397816 164.502759 
L 282.425503 164.598244 
L 282.686553 165.807723 
L 282.71424 165.903208 
L 282.939693 166.826231 
L 282.971336 166.921716 
L 283.177012 167.685597 
L 283.208654 167.781083 
L 283.398509 168.41765 
L 283.442018 168.513135 
L 283.576498 168.926904 
L 283.620007 169.02239 
L 283.78613 169.467987 
L 283.833594 169.563472 
L 283.983896 169.881756 
L 284.03927 169.977241 
L 284.185616 170.263697 
L 284.268678 170.359182 
L 284.407114 170.581981 
L 284.502041 170.677466 
L 284.632567 170.836608 
L 284.8066 170.932093 
L 284.921304 170.99575 
L 284.92526 170.963921 
L 284.968768 171.027578 
L 285.028098 171.027578 
L 285.419674 170.932093 
L 285.542288 170.836608 
L 285.550199 170.868436 
L 285.609529 170.772951 
L 285.641171 170.772951 
L 285.763786 170.613809 
L 285.767741 170.645637 
L 285.842892 170.550152 
L 285.977373 170.327353 
L 285.981328 170.359182 
L 286.056479 170.20004 
L 286.0723 170.20004 
L 286.13163 170.104555 
L 286.277976 169.818099 
L 286.329395 169.722614 
L 286.487608 169.340673 
L 286.491563 169.372502 
L 286.570669 169.149703 
L 286.736793 168.704106 
L 286.776346 168.608621 
L 286.954335 168.067538 
L 286.985977 167.972053 
L 287.179788 167.303657 
L 287.215385 167.208172 
L 287.425017 166.412462 
L 287.456659 166.316977 
L 287.682112 165.362125 
L 287.686067 165.393954 
L 287.753308 165.07567 
L 288.010403 163.898019 
L 288.03809 163.802534 
L 288.338694 162.274772 
L 288.35847 162.179287 
L 288.686761 160.428725 
L 288.706538 160.33324 
L 289.113935 157.946111 
L 289.129756 157.850626 
L 289.663723 154.444989 
L 289.679545 154.349504 
L 290.565534 148.11114 
L 290.581356 148.015655 
L 290.787032 146.456064 
L 290.802853 146.360579 
L 294.3745 118.510741 
L 294.386366 118.447084 
L 294.588087 116.95115 
L 294.599952 116.887493 
L 294.797718 115.455216 
L 294.813539 115.391559 
L 295.011305 113.99111 
L 295.023171 113.927453 
L 295.216981 112.590661 
L 295.236758 112.495176 
L 295.422657 111.253869 
L 295.438479 111.158384 
L 295.917071 108.198344 
L 295.936848 108.102859 
L 296.312602 105.970357 
L 296.332379 105.874872 
L 296.640893 104.283452 
L 296.66067 104.187967 
L 296.929631 102.914832 
L 296.949408 102.819346 
L 297.190682 101.76901 
L 297.222324 101.673525 
L 297.447777 100.750501 
L 297.479419 100.655016 
L 297.67323 99.98662 
L 297.704872 99.891135 
L 297.894727 99.254567 
L 297.938236 99.159082 
L 298.112269 98.649828 
L 298.163688 98.554343 
L 298.325856 98.140574 
L 298.381231 98.045089 
L 298.531532 97.726805 
L 298.594817 97.63132 
L 298.733253 97.376692 
L 298.741164 97.408521 
L 298.808404 97.281207 
L 298.832136 97.281207 
L 298.962661 97.122065 
L 299.061544 97.02658 
L 299.180204 96.931095 
L 299.184159 96.962923 
L 299.279086 96.867438 
L 299.286997 96.899267 
L 299.401701 96.83561 
L 299.508494 96.867438 
L 299.51245 96.83561 
L 299.777456 96.931095 
L 299.90007 97.02658 
L 300.01873 97.122065 
L 300.149255 97.281207 
L 300.216495 97.376692 
L 300.354931 97.63132 
L 300.358886 97.599491 
L 300.445903 97.790461 
L 300.501278 97.885947 
L 300.655535 98.236059 
L 300.691133 98.331544 
L 300.8533 98.777141 
L 300.857256 98.745313 
L 300.932407 98.99994 
L 300.936362 98.99994 
L 301.118306 99.572851 
L 301.145993 99.668336 
L 301.347714 100.432218 
L 301.35167 100.400389 
L 301.422865 100.718673 
L 301.454508 100.814158 
L 301.707648 101.95998 
L 301.73138 102.055465 
L 302.012207 103.424086 
L 302.035939 103.519571 
L 302.206017 104.474423 
L 302.68461 107.434462 
L 302.700431 107.529948 
L 304.535696 123.189514 
L 304.860031 126.626979 
L 305.160635 129.937131 
L 305.564077 134.679561 
L 305.575943 134.775046 
L 306.066401 140.886096 
L 306.256256 143.305054 
L 306.916793 152.153345 
L 307.071051 154.285847 
L 307.340012 158.105253 
L 307.486358 160.174098 
L 309.151545 185.19121 
L 309.274159 187.069085 
L 309.586629 191.938828 
L 311.979593 228.668785 
L 312.114073 230.642145 
L 313.063348 244.137381 
L 313.225516 246.33354 
L 313.822768 254.163323 
L 314.020533 256.614108 
L 314.245986 259.383178 
L 314.47935 262.152247 
L 314.851149 266.353594 
L 315.183395 269.918374 
L 315.483999 272.973899 
L 317.588225 289.015405 
L 317.611957 289.11089 
L 317.774124 289.938429 
L 317.793901 290.033914 
L 318.047041 291.179736 
L 318.070773 291.275221 
L 318.28436 292.102759 
L 318.312047 292.198244 
L 318.501902 292.834812 
L 318.529589 292.898468 
L 318.664069 293.312237 
L 318.707578 293.407723 
L 318.869746 293.821492 
L 318.929075 293.916977 
L 319.079377 294.235261 
L 319.162439 294.330746 
L 319.300875 294.553545 
L 319.411623 294.64903 
L 319.534238 294.744515 
L 320.163133 294.64903 
L 320.285747 294.489888 
L 320.289703 294.521716 
L 320.360898 294.426231 
L 320.499334 294.171604 
L 320.503289 294.203432 
L 320.586351 294.012462 
L 320.590306 294.012462 
L 320.645681 293.916977 
L 320.799938 293.566865 
L 320.843446 293.471379 
L 321.013525 292.993954 
L 321.041212 292.898468 
L 321.227111 292.293729 
L 321.258754 292.198244 
L 321.468386 291.402534 
L 321.492117 291.307049 
L 321.737347 290.224884 
L 321.765034 290.129399 
L 322.065638 288.601636 
L 322.085414 288.506151 
L 322.47699 286.214507 
L 322.480945 286.246336 
L 322.540275 285.832567 
L 324.771071 266.990162 
L 325.091451 263.616353 
L 325.392055 260.306201 
L 325.77572 255.913884 
L 326.020949 253.049329 
L 326.47581 247.51119 
L 326.681486 244.964919 
L 327.203588 238.344615 
L 327.385532 235.989314 
L 327.974873 228.286845 
L 328.152862 225.963372 
L 328.402047 222.621392 
L 329.042808 214.091384 
L 329.216841 211.799741 
L 329.841781 203.52436 
L 330.01977 201.232716 
L 330.261044 198.081706 
L 330.450899 195.662749 
L 330.961134 189.233415 
L 331.174721 186.623487 
L 331.400173 183.854418 
L 331.641447 181.021691 
L 331.855034 178.507249 
L 332.12004 175.483552 
L 332.472063 171.600489 
L 332.831996 167.812911 
L 333.1326 164.757386 
L 333.144466 164.661901 
L 333.425293 161.92466 
L 333.437159 161.829174 
L 333.69821 159.410217 
L 335.486011 145.914981 
L 335.505787 145.819496 
L 335.873631 143.750651 
L 335.893408 143.655166 
L 336.17819 142.254717 
L 336.197967 142.19106 
L 336.352224 141.490836 
L 336.581632 140.535984 
L 336.613274 140.440499 
L 336.818951 139.676618 
L 336.846638 139.581132 
L 337.032537 138.976393 
L 337.068135 138.880908 
L 337.242169 138.371654 
L 337.289633 138.276169 
L 337.447845 137.894228 
L 337.499264 137.798743 
L 337.649566 137.480459 
L 337.70494 137.384974 
L 337.843376 137.162175 
L 337.910617 137.06669 
L 338.041142 136.907548 
L 338.147935 136.812063 
L 338.274505 136.684749 
L 338.278461 136.716578 
L 338.321969 136.652921 
L 338.381299 136.652921 
L 339.077434 136.748406 
L 339.204004 136.87572 
L 339.302886 136.971205 
L 339.437367 137.162175 
L 339.504607 137.25766 
L 339.643043 137.512287 
L 339.650954 137.480459 
L 339.722149 137.639601 
L 339.734015 137.639601 
L 339.884317 137.957885 
L 339.931781 138.05337 
L 340.089993 138.467139 
L 340.093949 138.435311 
L 340.1691 138.658109 
L 340.17701 138.658109 
L 340.216563 138.753594 
L 340.394552 139.294677 
L 340.434106 139.390162 
L 340.61605 139.963073 
L 340.643737 140.058558 
L 340.841503 140.758783 
L 340.873145 140.854268 
L 341.090687 141.713634 
L 341.12233 141.809119 
L 341.359649 142.827628 
L 341.38338 142.923113 
L 341.640476 144.100763 
L 341.664208 144.196248 
L 341.94899 145.596697 
L 341.972722 145.692183 
L 342.304968 147.474572 
L 342.3287 147.570057 
L 342.498778 148.556737 
L 342.52251 148.652222 
L 342.941773 151.134837 
L 342.957595 151.198493 
L 343.139539 152.344315 
L 343.159315 152.4398 
L 343.713059 156.00458 
L 343.72888 156.100065 
L 344.42106 160.778838 
L 344.436881 160.874323 
L 345.299139 166.921716 
L 345.31496 167.017201 
L 346.177218 173.064595 
L 346.189084 173.128251 
L 346.382895 174.496872 
L 346.398716 174.560529 
L 346.592526 175.897321 
L 347.221421 180.06684 
L 347.237242 180.130496 
L 347.423142 181.339975 
L 347.885913 184.172701 
L 347.90569 184.268187 
L 348.29331 186.496174 
L 348.313087 186.591659 
L 348.483165 187.54651 
L 348.506897 187.641996 
L 348.823322 189.297072 
L 348.847054 189.392557 
L 349.123926 190.729349 
L 349.143702 190.793006 
L 349.297959 191.49323 
L 349.535278 192.511739 
L 349.55901 192.575395 
L 349.705356 193.180135 
L 349.736999 193.27562 
L 349.950586 194.103158 
L 349.982228 194.198643 
L 350.172083 194.835211 
L 350.211636 194.930696 
L 350.389625 195.471778 
L 350.429179 195.567264 
L 350.599257 196.044689 
L 350.603212 196.012861 
L 350.674408 196.23566 
L 350.686274 196.23566 
L 350.721872 196.331145 
L 350.872173 196.649429 
L 350.919637 196.744914 
L 351.062028 197.031369 
L 351.065984 196.999541 
L 351.153001 197.190511 
L 351.156956 197.158683 
L 351.291436 197.381482 
L 351.295392 197.349653 
L 351.382409 197.508795 
L 351.386364 197.476967 
L 351.516889 197.636109 
L 351.635549 197.731594 
L 351.758163 197.827079 
L 351.762119 197.795251 
L 351.797716 197.858907 
L 351.864957 197.858907 
L 352.458253 197.763422 
L 352.584823 197.636109 
L 352.691617 197.540624 
L 352.826097 197.349653 
L 352.897293 197.254168 
L 353.039684 196.999541 
L 353.095059 196.904056 
L 353.249316 196.553944 
L 353.30469 196.458458 
L 353.462903 196.044689 
L 353.466858 196.076518 
L 353.542009 195.821891 
L 353.545964 195.821891 
L 353.589473 195.726406 
L 353.771417 195.153495 
L 353.803059 195.058009 
L 354.00478 194.325957 
L 354.032468 194.230471 
L 354.25001 193.371105 
L 354.277697 193.27562 
L 354.522926 192.193455 
L 354.542703 192.09797 
L 354.835396 190.633864 
L 354.855172 190.538379 
L 355.238838 188.34222 
L 355.258614 188.246735 
L 355.891464 184.045388 
L 355.90333 183.981731 
L 356.109006 182.453969 
L 357.469634 170.613809 
L 357.762327 167.685597 
L 358.134126 163.802534 
L 358.478238 160.046785 
L 358.75511 156.927603 
L 359.162507 152.153345 
L 359.399826 149.352447 
L 359.625278 146.551549 
L 359.83491 143.97345 
L 360.357011 137.353145 
L 360.542911 134.966016 
L 361.140163 127.136233 
L 361.318152 124.812761 
L 361.563381 121.534438 
L 361.73346 119.274622 
L 362.370265 110.808271 
L 362.536388 108.612113 
L 362.781617 105.333789 
L 362.967517 102.94666 
L 363.548948 95.371504 
L 363.742758 92.920718 
L 364.249038 86.555041 
L 364.470535 83.881457 
L 364.692033 81.207872 
L 365.095475 76.497271 
L 365.372346 73.378089 
L 365.716459 69.62234 
L 366.115945 65.516478 
L 366.404683 62.651923 
L 368.552417 46.260304 
L 368.572194 46.164819 
L 368.884663 44.541571 
L 368.888619 44.5734 
L 368.951904 44.255116 
L 368.955859 44.255116 
L 369.201088 43.172951 
L 369.22482 43.077466 
L 369.434452 42.281756 
L 369.466094 42.186271 
L 369.651994 41.581532 
L 369.687592 41.486046 
L 369.861625 40.976792 
L 369.865581 41.008621 
L 369.944687 40.785822 
L 369.948642 40.785822 
L 369.992151 40.690337 
L 370.142453 40.372053 
L 370.205738 40.276568 
L 370.344173 40.053769 
L 370.42328 39.958284 
L 370.545894 39.799142 
L 370.54985 39.83097 
L 370.67642 39.735485 
L 370.787168 39.671828 
L 370.791124 39.703657 
L 371.253895 39.799142 
L 371.380465 39.926455 
L 371.459571 40.021941 
L 371.598007 40.244739 
L 371.677114 40.340224 
L 371.831371 40.690337 
L 371.88279 40.785822 
L 372.048913 41.231419 
L 372.084511 41.326904 
L 372.2625 41.867987 
L 372.290187 41.963472 
L 372.487952 42.663697 
L 372.511684 42.759182 
L 372.745048 43.745862 
L 372.77669 43.841347 
L 372.934903 44.605228 
L 373.263194 46.355789 
L 373.286925 46.451275 
L 373.464914 47.53344 
L 375.648247 65.993904 
L 376.000269 69.876967 
L 376.26132 72.868835 
L 376.712225 78.343318 
L 376.909991 80.825932 
L 377.519109 88.846685 
L 377.681277 91.042844 
L 377.942327 94.703108 
L 378.088674 96.740125 
L 378.36159 100.655016 
L 380.1929 128.345712 
L 380.315514 130.223587 
L 382.759897 167.781083 
L 382.898333 169.786271 
L 383.17916 173.892133 
L 383.321551 175.929149 
L 384.120524 187.005428 
L 384.290603 189.265243 
L 384.836436 196.267488 
L 385.050023 198.877416 
L 385.461375 203.747159 
L 385.473241 203.842644 
L 385.833174 207.853021 
L 386.197063 211.672427 
L 386.489756 214.600639 
L 388.582116 230.54666 
L 388.605848 230.642145 
L 388.771971 231.53334 
L 388.787792 231.628825 
L 389.048843 232.838304 
L 389.072575 232.933789 
L 389.301983 233.888641 
L 389.325715 233.984126 
L 389.531391 234.748007 
L 389.563033 234.843492 
L 389.748933 235.48006 
L 389.752888 235.448231 
L 389.831995 235.702859 
L 389.994162 236.148456 
L 389.998118 236.116628 
L 390.077224 236.339426 
L 390.081179 236.339426 
L 390.124688 236.434911 
L 390.27499 236.753195 
L 390.330364 236.84868 
L 390.4688 237.103308 
L 390.472755 237.071479 
L 390.539995 237.198793 
L 390.563727 237.198793 
L 390.694253 237.389763 
L 390.714029 237.357935 
L 390.769404 237.45342 
L 390.793135 237.45342 
L 390.91575 237.548905 
L 391.643527 237.45342 
L 391.770097 237.326106 
L 391.857114 237.230621 
L 391.991595 237.039651 
L 392.050925 236.944166 
L 392.193316 236.689539 
L 392.244735 236.594053 
L 392.391081 236.243941 
L 392.395037 236.27577 
L 392.43459 236.180284 
L 392.600713 235.734687 
L 392.608624 235.766515 
L 392.675864 235.543717 
L 392.68773 235.543717 
L 392.865719 235.002634 
L 392.897361 234.907149 
L 393.087216 234.270581 
L 393.118859 234.175096 
L 393.32849 233.379386 
L 393.360133 233.283901 
L 393.593496 232.297221 
L 393.621183 232.201736 
L 393.882234 230.992257 
L 393.905966 230.928601 
L 394.068134 230.101063 
L 394.08791 230.037406 
L 394.250078 229.178039 
L 394.269855 229.082554 
L 394.617922 227.172851 
L 394.637698 227.077366 
L 395.080693 224.403781 
L 395.10047 224.308296 
L 395.725409 220.170606 
L 395.74123 220.075121 
L 397.089992 210.112836 
L 397.101858 210.049179 
L 397.3194 208.330446 
L 400.459917 183.949903 
L 400.475739 183.854418 
L 401.203516 178.889189 
L 401.219337 178.793704 
L 401.705841 175.770007 
L 401.725617 175.674522 
L 401.899651 174.624186 
L 401.923383 174.5287 
L 402.279361 172.55534 
L 402.299137 172.459855 
L 402.591831 170.99575 
L 402.611607 170.900264 
L 402.872658 169.690786 
L 402.89639 169.595301 
L 403.133708 168.576792 
L 403.15744 168.481307 
L 403.371027 167.653769 
L 403.402669 167.558284 
L 403.600435 166.858059 
L 403.636033 166.762574 
L 403.825888 166.126006 
L 403.829843 166.157835 
L 403.904994 165.903208 
L 403.908949 165.903208 
L 403.944547 165.807723 
L 404.114626 165.330297 
L 404.118581 165.362125 
L 404.189776 165.139327 
L 404.197687 165.139327 
L 404.351944 164.789214 
L 404.407319 164.693729 
L 404.553665 164.375445 
L 404.55762 164.407274 
L 404.628816 164.248132 
L 404.644637 164.248132 
L 404.783073 164.025333 
L 404.866135 163.929848 
L 404.99666 163.770706 
L 405.091588 163.675221 
L 405.214202 163.579736 
L 405.44361 163.48425 
L 405.554359 163.452422 
L 405.657197 163.48425 
L 405.665108 163.452422 
L 405.922203 163.547907 
L 406.048773 163.675221 
L 406.060639 163.643392 
L 406.147656 163.770706 
L 406.151611 163.738878 
L 406.250494 163.834363 
L 406.38893 164.057161 
L 406.468036 164.152647 
L 406.610427 164.407274 
L 406.673712 164.502759 
L 406.827969 164.852871 
L 406.887299 164.948356 
L 407.017824 165.298468 
L 407.065288 165.393954 
L 407.239322 165.903208 
L 407.27492 165.998693 
L 407.460819 166.603432 
L 407.492462 166.698917 
L 407.694183 167.43097 
L 407.717915 167.526455 
L 407.935457 168.385822 
L 407.963144 168.481307 
L 408.212329 169.595301 
L 408.232105 169.690786 
L 408.520843 171.123063 
L 408.540619 171.18672 
L 408.706743 172.077915 
L 409.106229 174.401387 
L 409.126006 174.496872 
L 409.735124 178.507249 
L 409.750945 178.602734 
L 412.1004 198.39999 
L 412.381227 201.137231 
L 412.85982 205.879661 
L 413.164379 208.998843 
L 413.579687 213.232018 
L 413.892156 216.510342 
L 413.904022 216.605827 
L 414.220447 219.915979 
L 414.596202 223.830871 
L 414.908671 227.077366 
L 415.33189 231.374198 
L 415.632494 234.429723 
L 416.107131 239.140324 
L 416.387958 241.877565 
L 417.123646 248.68884 
L 417.368875 250.85317 
L 417.384697 250.948656 
L 417.622015 252.985672 
L 419.002419 263.202584 
L 419.01824 263.298069 
L 419.453325 265.907997 
L 419.473101 266.003482 
L 419.793482 267.690387 
L 419.813258 267.785872 
L 420.082219 269.059007 
L 420.105951 269.154492 
L 420.339315 270.141172 
L 420.367002 270.236658 
L 420.568723 270.96871 
L 420.59641 271.064196 
L 420.786265 271.700763 
L 420.79022 271.668935 
L 420.865371 271.923562 
L 420.869326 271.923562 
L 420.904924 272.019047 
L 421.071047 272.464645 
L 421.118511 272.56013 
L 421.268813 272.910242 
L 421.272768 272.878414 
L 421.347919 273.069384 
L 421.35583 273.069384 
L 421.494266 273.292183 
L 421.565461 273.387668 
L 421.695987 273.578638 
L 421.699942 273.54681 
L 421.775093 273.674123 
L 421.794869 273.642295 
L 421.917484 273.73778 
L 422.605708 273.642295 
L 422.736234 273.483153 
L 422.819295 273.387668 
L 422.957731 273.164869 
L 423.013105 273.069384 
L 423.163407 272.7511 
L 423.206916 272.655615 
L 423.373039 272.210017 
L 423.420502 272.114532 
L 423.602447 271.541621 
L 423.634089 271.446136 
L 423.83581 270.714083 
L 423.859542 270.618598 
L 424.08104 269.727403 
L 424.100816 269.631918 
L 424.369777 268.358783 
L 424.389554 268.263298 
L 424.733666 266.385423 
L 424.753443 266.289938 
L 425.382337 262.120419 
L 425.394203 262.056762 
L 425.603835 260.465343 
L 426.648037 251.171454 
L 426.956551 247.988616 
L 427.272976 244.55115 
L 427.664552 240.031519 
L 427.672463 239.967862 
L 428.143145 234.175096 
L 428.333 231.756139 
L 429.03309 222.27128 
L 429.183392 220.170606 
L 432.557273 167.271828 
L 432.557273 167.271828 
" clip-path="url(#p950d4fcd10)" style="fill: none; stroke: #1f77b4; stroke-width: 1.5; stroke-linecap: square"/>
   </g>
   <g id="patch_3">
    <path d="M 66.26 307.6 
L 66.26 26.88 
" style="fill: none; stroke: #000000; stroke-width: 0.8; stroke-linejoin: miter; stroke-linecap: square"/>
   </g>
   <g id="patch_4">
    <path d="M 450 307.6 
L 450 26.88 
" style="fill: none; stroke: #000000; stroke-width: 0.8; stroke-linejoin: miter; stroke-linecap: square"/>
   </g>
   <g id="patch_5">
    <path d="M 66.26 307.6 
L 450 307.6 
" style="fill: none; stroke: #000000; stroke-width: 0.8; stroke-linejoin: miter; stroke-linecap: square"/>
   </g>
   <g id="patch_6">
    <path d="M 66.26 26.88 
L 450 26.88 
" style="fill: none; stroke: #000000; stroke-width: 0.8; stroke-linejoin: miter; stroke-linecap: square"/>
   </g>
   <g id="text_21">
    <!-- Dual Tone (2 Hz + 5 Hz) -->
    <g transform="translate(186.445 20.88) scale(0.12 -0.12)">
     <defs>
      <path id="DejaVuSans-44" d="M 1259 4147 
L 1259 519 
L 2022 519 
Q 2988 519 3436 956 
Q 3884 1394 3884 2338 
Q 3884 3275 3436 3711 
Q 2988 4147 2022 4147 
L 1259 4147 
z
M 628 4666 
L 1925 4666 
Q 3281 4666 3915 4102 
Q 4550 3538 4550 2338 
Q 4550 1131 3912 565 
Q 3275 0 1925 0 
L 628 0 
L 628 4666 
z
" transform="scale(0.015625)"/>
      <path id="DejaVuSans-75" d="M 544 1381 
L 544 3500 
L 1119 3500 
L 1119 1403 
Q 1119 906 1312 657 
Q 1506 409 1894 409 
Q 2359 409 2629 706 
Q 2900 1003 2900 1516 
L 2900 3500 
L 3475 3500 
L 3475 0 
L 2900 0 
L 2900 538 
Q 2691 219 2414 64 
Q 2138 -91 1772 -91 
Q 1169 -91 856 284 
Q 544 659 544 1381 
z
M 1991 3584 
L 1991 3584 
z
" transform="scale(0.015625)"/>
      <path id="DejaVuSans-61" d="M 2194 1759 
Q 1497 1759 1228 1600 
Q 959 1441 959 1056 
Q 959 750 1161 570 
Q 1363 391 1709 391 
Q 2188 391 2477 730 
Q 2766 1069 2766 1631 
L 2766 1759 
L 2194 1759 
z
M 3341 1997 
L 3341 0 
L 2766 0 
L 2766 531 
Q 2569 213 2275 61 
Q 1981 -91 1556 -91 
Q 1019 -91 701 211 
Q 384 513 384 1019 
Q 384 1609 779 1909 
Q 1175 2209 1959 2209 
L 2766 2209 
L 2766 2266 
Q 2766 2663 2505 2880 
Q 2244 3097 1772 3097 
Q 1472 3097 1187 3025 
Q 903 2953 641 2809 
L 641 3341 
Q 956 3463 1253 3523 
Q 1550 3584 1831 3584 
Q 2591 3584 2966 3190 
Q 3341 2797 3341 1997 
z
" transform="scale(0.015625)"/>
      <path id="DejaVuSans-6c" d="M 603 4863 
L 1178 4863 
L 1178 0 
L 603 0 
L 603 4863 
z
" transform="scale(0.015625)"/>
      <path id="DejaVuSans-54" d="M -19 4666 
L 3928 4666 
L 3928 4134 
L 2272 4134 
L 2272 0 
L 1638 0 
L 1638 4134 
L -19 4134 
L -19 4666 
z
" transform="scale(0.015625)"/>
      <path id="DejaVuSans-6f" d="M 1959 3097 
Q 1497 3097 1228 2736 
Q 959 2375 959 1747 
Q 959 1119 1226 758 
Q 1494 397 1959 397 
Q 2419 397 2687 759 
Q 2956 1122 2956 1747 
Q 2956 2369 2687 2733 
Q 2419 3097 1959 3097 
z
M 1959 3584 
Q 2709 3584 3137 3096 
Q 3566 2609 3566 1747 
Q 3566 888 3137 398 
Q 2709 -91 1959 -91 
Q 1206 -91 779 398 
Q 353 888 353 1747 
Q 353 2609 779 3096 
Q 1206 3584 1959 3584 
z
" transform="scale(0.015625)"/>
      <path id="DejaVuSans-6e" d="M 3513 2113 
L 3513 0 
L 2938 0 
L 2938 2094 
Q 2938 2591 2744 2837 
Q 2550 3084 2163 3084 
Q 1697 3084 1428 2787 
Q 1159 2491 1159 1978 
L 1159 0 
L 581 0 
L 581 3500 
L 1159 3500 
L 1159 2956 
Q 1366 3272 1645 3428 
Q 1925 3584 2291 3584 
Q 2894 3584 3203 3211 
Q 3513 2838 3513 2113 
z
" transform="scale(0.015625)"/>
      <path id="DejaVuSans-65" d="M 3597 1894 
L 3597 1613 
L 953 1613 
Q 991 1019 1311 708 
Q 1631 397 2203 397 
Q 2534 397 2845 478 
Q 3156 559 3463 722 
L 3463 178 
Q 3153 47 2828 -22 
Q 2503 -91 2169 -91 
Q 1331 -91 842 396 
Q 353 884 353 1716 
Q 353 2575 817 3079 
Q 1281 3584 2069 3584 
Q 2775 3584 3186 3129 
Q 3597 2675 3597 1894 
z
M 3022 2063 
Q 3016 2534 2758 2815 
Q 2500 3097 2075 3097 
Q 1594 3097 1305 2825 
Q 1016 2553 972 2059 
L 3022 2063 
z
" transform="scale(0.015625)"/>
      <path id="DejaVuSans-48" d="M 628 4666 
L 1259 4666 
L 1259 2753 
L 3553 2753 
L 3553 4666 
L 4184 4666 
L 4184 0 
L 3553 0 
L 3553 2222 
L 1259 2222 
L 1259 0 
L 628 0 
L 628 4666 
z
" transform="scale(0.015625)"/>
      <path id="DejaVuSans-7a" d="M 353 3500 
L 3084 3500 
L 3084 2975 
L 922 459 
L 3084 459 
L 3084 0 
L 275 0 
L 275 525 
L 2438 3041 
L 353 3041 
L 353 3500 
z
" transform="scale(0.015625)"/>
      <path id="DejaVuSans-2b" d="M 2944 4013 
L 2944 2272 
L 4684 2272 
L 4684 1741 
L 2944 1741 
L 2944 0 
L 2419 0 
L 2419 1741 
L 678 1741 
L 678 2272 
L 2419 2272 
L 2419 4013 
L 2944 4013 
z
" transform="scale(0.015625)"/>
     </defs>
     <use xlink:href="#DejaVuSans-44"/>
     <use xlink:href="#DejaVuSans-75" transform="translate(77.001953 0)"/>
     <use xlink:href="#DejaVuSans-61" transform="translate(140.380859 0)"/>
     <use xlink:href="#DejaVuSans-6c" transform="translate(201.660156 0)"/>
     <use xlink:href="#DejaVuSans-20" transform="translate(229.443359 0)"/>
     <use xlink:href="#DejaVuSans-54" transform="translate(261.230469 0)"/>
     <use xlink:href="#DejaVuSans-6f" transform="translate(305.314453 0)"/>
     <use xlink:href="#DejaVuSans-6e" transform="translate(366.496094 0)"/>
     <use xlink:href="#DejaVuSans-65" transform="translate(429.875 0)"/>
     <use xlink:href="#DejaVuSans-20" transform="translate(491.398438 0)"/>
     <use xlink:href="#DejaVuSans-28" transform="translate(523.185547 0)"/>
     <use xlink:href="#DejaVuSans-32" transform="translate(562.199219 0)"/>
     <use xlink:href="#DejaVuSans-20" transform="translate(625.822266 0)"/>
     <use xlink:href="#DejaVuSans-48" transform="translate(657.609375 0)"/>
     <use xlink:href="#DejaVuSans-7a" transform="translate(732.804688 0)"/>
     <use xlink:href="#DejaVuSans-20" transform="translate(785.294922 0)"/>
     <use xlink:href="#DejaVuSans-2b" transform="translate(817.082031 0)"/>
     <use xlink:href="#DejaVuSans-20" transform="translate(900.871094 0)"/>
     <use xlink:href="#DejaVuSans-35" transform="translate(932.658203 0)"/>
     <use xlink:href="#DejaVuSans-20" transform="translate(996.28125 0)"/>
     <use xlink:href="#DejaVuSans-48" transform="translate(1028.068359 0)"/>
     <use xlink:href="#DejaVuSans-7a" transform="translate(1103.263672 0)"/>
     <use xlink:href="#DejaVuSans-29" transform="translate(1155.753906 0)"/>
    </g>
   </g>
  </g>
  <g id="axes_2">
   <g id="patch_7">
    <path d="M 66.26 647.8 
L 450 647.8 
L 450 367.08 
L 66.26 367.08 
z
" style="fill: #ffffff"/>
   </g>
   <g id="matplotlib.axis_3">
    <g id="xtick_10">
     <g id="line2d_20">
      <g>
       <use xlink:href="#md405308e44" x="83.702727" y="647.8" style="stroke: #000000; stroke-width: 0.8"/>
      </g>
     </g>
     <g id="text_22">
      <!-- 0 -->
      <g transform="translate(80.521477 662.398437) scale(0.1 -0.1)">
       <use xlink:href="#DejaVuSans-30"/>
      </g>
     </g>
    </g>
    <g id="xtick_11">
     <g id="line2d_21">
      <g>
       <use xlink:href="#md405308e44" x="127.309545" y="647.8" style="stroke: #000000; stroke-width: 0.8"/>
      </g>
     </g>
     <g id="text_23">
      <!-- 1 -->
      <g transform="translate(124.128295 662.398437) scale(0.1 -0.1)">
       <use xlink:href="#DejaVuSans-31"/>
      </g>
     </g>
    </g>
    <g id="xtick_12">
     <g id="line2d_22">
      <g>
       <use xlink:href="#md405308e44" x="170.916364" y="647.8" style="stroke: #000000; stroke-width: 0.8"/>
      </g>
     </g>
     <g id="text_24">
      <!-- 2 -->
      <g transform="translate(167.735114 662.398437) scale(0.1 -0.1)">
       <use xlink:href="#DejaVuSans-32"/>
      </g>
     </g>
    </g>
    <g id="xtick_13">
     <g id="line2d_23">
      <g>
       <use xlink:href="#md405308e44" x="214.523182" y="647.8" style="stroke: #000000; stroke-width: 0.8"/>
      </g>
     </g>
     <g id="text_25">
      <!-- 3 -->
      <g transform="translate(211.341932 662.398437) scale(0.1 -0.1)">
       <use xlink:href="#DejaVuSans-33"/>
      </g>
     </g>
    </g>
    <g id="xtick_14">
     <g id="line2d_24">
      <g>
       <use xlink:href="#md405308e44" x="258.13" y="647.8" style="stroke: #000000; stroke-width: 0.8"/>
      </g>
     </g>
     <g id="text_26">
      <!-- 4 -->
      <g transform="translate(254.94875 662.398437) scale(0.1 -0.1)">
       <use xlink:href="#DejaVuSans-34"/>
      </g>
     </g>
    </g>
    <g id="xtick_15">
     <g id="line2d_25">
      <g>
       <use xlink:href="#md405308e44" x="301.736818" y="647.8" style="stroke: #000000; stroke-width: 0.8"/>
      </g>
     </g>
     <g id="text_27">
      <!-- 5 -->
      <g transform="translate(298.555568 662.398437) scale(0.1 -0.1)">
       <use xlink:href="#DejaVuSans-35"/>
      </g>
     </g>
    </g>
    <g id="xtick_16">
     <g id="line2d_26">
      <g>
       <use xlink:href="#md405308e44" x="345.343636" y="647.8" style="stroke: #000000; stroke-width: 0.8"/>
      </g>
     </g>
     <g id="text_28">
      <!-- 6 -->
      <g transform="translate(342.162386 662.398437) scale(0.1 -0.1)">
       <defs>
        <path id="DejaVuSans-36" d="M 2113 2584 
Q 1688 2584 1439 2293 
Q 1191 2003 1191 1497 
Q 1191 994 1439 701 
Q 1688 409 2113 409 
Q 2538 409 2786 701 
Q 3034 994 3034 1497 
Q 3034 2003 2786 2293 
Q 2538 2584 2113 2584 
z
M 3366 4563 
L 3366 3988 
Q 3128 4100 2886 4159 
Q 2644 4219 2406 4219 
Q 1781 4219 1451 3797 
Q 1122 3375 1075 2522 
Q 1259 2794 1537 2939 
Q 1816 3084 2150 3084 
Q 2853 3084 3261 2657 
Q 3669 2231 3669 1497 
Q 3669 778 3244 343 
Q 2819 -91 2113 -91 
Q 1303 -91 875 529 
Q 447 1150 447 2328 
Q 447 3434 972 4092 
Q 1497 4750 2381 4750 
Q 2619 4750 2861 4703 
Q 3103 4656 3366 4563 
z
" transform="scale(0.015625)"/>
       </defs>
       <use xlink:href="#DejaVuSans-36"/>
      </g>
     </g>
    </g>
    <g id="xtick_17">
     <g id="line2d_27">
      <g>
       <use xlink:href="#md405308e44" x="388.950455" y="647.8" style="stroke: #000000; stroke-width: 0.8"/>
      </g>
     </g>
     <g id="text_29">
      <!-- 7 -->
      <g transform="translate(385.769205 662.398437) scale(0.1 -0.1)">
       <use xlink:href="#DejaVuSans-37"/>
      </g>
     </g>
    </g>
    <g id="xtick_18">
     <g id="line2d_28">
      <g>
       <use xlink:href="#md405308e44" x="432.557273" y="647.8" style="stroke: #000000; stroke-width: 0.8"/>
      </g>
     </g>
     <g id="text_30">
      <!-- 8 -->
      <g transform="translate(429.376023 662.398437) scale(0.1 -0.1)">
       <defs>
        <path id="DejaVuSans-38" d="M 2034 2216 
Q 1584 2216 1326 1975 
Q 1069 1734 1069 1313 
Q 1069 891 1326 650 
Q 1584 409 2034 409 
Q 2484 409 2743 651 
Q 3003 894 3003 1313 
Q 3003 1734 2745 1975 
Q 2488 2216 2034 2216 
z
M 1403 2484 
Q 997 2584 770 2862 
Q 544 3141 544 3541 
Q 544 4100 942 4425 
Q 1341 4750 2034 4750 
Q 2731 4750 3128 4425 
Q 3525 4100 3525 3541 
Q 3525 3141 3298 2862 
Q 3072 2584 2669 2484 
Q 3125 2378 3379 2068 
Q 3634 1759 3634 1313 
Q 3634 634 3220 271 
Q 2806 -91 2034 -91 
Q 1263 -91 848 271 
Q 434 634 434 1313 
Q 434 1759 690 2068 
Q 947 2378 1403 2484 
z
M 1172 3481 
Q 1172 3119 1398 2916 
Q 1625 2713 2034 2713 
Q 2441 2713 2670 2916 
Q 2900 3119 2900 3481 
Q 2900 3844 2670 4047 
Q 2441 4250 2034 4250 
Q 1625 4250 1398 4047 
Q 1172 3844 1172 3481 
z
" transform="scale(0.015625)"/>
       </defs>
       <use xlink:href="#DejaVuSans-38"/>
      </g>
     </g>
    </g>
    <g id="text_31">
     <!-- $\nu$ (Hz) -->
     <g transform="translate(243.43 676.076562) scale(0.1 -0.1)">
      <defs>
       <path id="DejaVuSans-Oblique-3bd" d="M 959 0 
L 572 3500 
L 1191 3500 
L 1522 563 
Q 1972 950 2391 1488 
Q 2706 1891 2788 2241 
Q 2825 2406 2809 2719 
Q 2794 3091 2544 3500 
L 3125 3500 
L 3125 3500 
Q 3288 3222 3353 2834 
Q 3416 2478 3369 2234 
Q 3250 1622 2719 1075 
Q 2025 363 1572 0 
L 959 0 
z
" transform="scale(0.015625)"/>
      </defs>
      <use xlink:href="#DejaVuSans-Oblique-3bd" transform="translate(0 0.125)"/>
      <use xlink:href="#DejaVuSans-20" transform="translate(55.859375 0.125)"/>
      <use xlink:href="#DejaVuSans-28" transform="translate(87.646484 0.125)"/>
      <use xlink:href="#DejaVuSans-48" transform="translate(126.660156 0.125)"/>
      <use xlink:href="#DejaVuSans-7a" transform="translate(201.855469 0.125)"/>
      <use xlink:href="#DejaVuSans-29" transform="translate(254.345703 0.125)"/>
     </g>
    </g>
   </g>
   <g id="matplotlib.axis_4">
    <g id="ytick_10">
     <g id="line2d_29">
      <g>
       <use xlink:href="#m8eea43570a" x="66.26" y="635.040007" style="stroke: #000000; stroke-width: 0.8"/>
      </g>
     </g>
     <g id="text_32">
      <!-- 0 -->
      <g transform="translate(52.8975 638.839225) scale(0.1 -0.1)">
       <use xlink:href="#DejaVuSans-30"/>
      </g>
     </g>
    </g>
    <g id="ytick_11">
     <g id="line2d_30">
      <g>
       <use xlink:href="#m8eea43570a" x="66.26" y="573.886685" style="stroke: #000000; stroke-width: 0.8"/>
      </g>
     </g>
     <g id="text_33">
      <!-- 500 -->
      <g transform="translate(40.1725 577.685904) scale(0.1 -0.1)">
       <use xlink:href="#DejaVuSans-35"/>
       <use xlink:href="#DejaVuSans-30" transform="translate(63.623047 0)"/>
       <use xlink:href="#DejaVuSans-30" transform="translate(127.246094 0)"/>
      </g>
     </g>
    </g>
    <g id="ytick_12">
     <g id="line2d_31">
      <g>
       <use xlink:href="#m8eea43570a" x="66.26" y="512.733363" style="stroke: #000000; stroke-width: 0.8"/>
      </g>
     </g>
     <g id="text_34">
      <!-- 1000 -->
      <g transform="translate(33.81 516.532582) scale(0.1 -0.1)">
       <use xlink:href="#DejaVuSans-31"/>
       <use xlink:href="#DejaVuSans-30" transform="translate(63.623047 0)"/>
       <use xlink:href="#DejaVuSans-30" transform="translate(127.246094 0)"/>
       <use xlink:href="#DejaVuSans-30" transform="translate(190.869141 0)"/>
      </g>
     </g>
    </g>
    <g id="ytick_13">
     <g id="line2d_32">
      <g>
       <use xlink:href="#m8eea43570a" x="66.26" y="451.580042" style="stroke: #000000; stroke-width: 0.8"/>
      </g>
     </g>
     <g id="text_35">
      <!-- 1500 -->
      <g transform="translate(33.81 455.37926) scale(0.1 -0.1)">
       <use xlink:href="#DejaVuSans-31"/>
       <use xlink:href="#DejaVuSans-35" transform="translate(63.623047 0)"/>
       <use xlink:href="#DejaVuSans-30" transform="translate(127.246094 0)"/>
       <use xlink:href="#DejaVuSans-30" transform="translate(190.869141 0)"/>
      </g>
     </g>
    </g>
    <g id="ytick_14">
     <g id="line2d_33">
      <g>
       <use xlink:href="#m8eea43570a" x="66.26" y="390.42672" style="stroke: #000000; stroke-width: 0.8"/>
      </g>
     </g>
     <g id="text_36">
      <!-- 2000 -->
      <g transform="translate(33.81 394.225939) scale(0.1 -0.1)">
       <use xlink:href="#DejaVuSans-32"/>
       <use xlink:href="#DejaVuSans-30" transform="translate(63.623047 0)"/>
       <use xlink:href="#DejaVuSans-30" transform="translate(127.246094 0)"/>
       <use xlink:href="#DejaVuSans-30" transform="translate(190.869141 0)"/>
      </g>
     </g>
    </g>
    <g id="text_37">
     <!-- $\sqrt{a_\nu^2 + b_\nu^2}$ -->
     <g transform="translate(27.01 530.69) rotate(-90) scale(0.1 -0.1)">
      <defs>
       <path id="STIXSizeOneSym-Regular-221a" d="M 6970 9933 
L 3373 -1888 
L 3104 -1888 
L 1626 2918 
Q 1555 3149 1465 3251 
Q 1376 3354 1229 3354 
Q 1011 3354 794 3181 
L 717 3309 
L 1766 4115 
L 1926 4115 
L 3379 -602 
L 3405 -602 
L 6605 9933 
L 6970 9933 
z
" transform="scale(0.015625)"/>
       <path id="DejaVuSans-Oblique-61" d="M 3438 1997 
L 3047 0 
L 2472 0 
L 2578 531 
Q 2325 219 2001 64 
Q 1678 -91 1281 -91 
Q 834 -91 548 182 
Q 263 456 263 884 
Q 263 1497 752 1853 
Q 1241 2209 2100 2209 
L 2900 2209 
L 2931 2363 
Q 2938 2388 2941 2417 
Q 2944 2447 2944 2509 
Q 2944 2788 2717 2942 
Q 2491 3097 2081 3097 
Q 1800 3097 1504 3025 
Q 1209 2953 897 2809 
L 997 3341 
Q 1322 3463 1633 3523 
Q 1944 3584 2234 3584 
Q 2853 3584 3176 3315 
Q 3500 3047 3500 2534 
Q 3500 2431 3484 2292 
Q 3469 2153 3438 1997 
z
M 2816 1759 
L 2241 1759 
Q 1534 1759 1195 1570 
Q 856 1381 856 984 
Q 856 709 1029 553 
Q 1203 397 1509 397 
Q 1978 397 2328 733 
Q 2678 1069 2791 1631 
L 2816 1759 
z
" transform="scale(0.015625)"/>
       <path id="DejaVuSans-Oblique-62" d="M 3169 2138 
Q 3169 2591 2961 2847 
Q 2753 3103 2388 3103 
Q 2122 3103 1889 2973 
Q 1656 2844 1484 2597 
Q 1303 2338 1198 1995 
Q 1094 1653 1094 1313 
Q 1094 881 1298 636 
Q 1503 391 1863 391 
Q 2134 391 2365 517 
Q 2597 644 2772 891 
Q 2950 1147 3059 1487 
Q 3169 1828 3169 2138 
z
M 1381 2969 
Q 1594 3256 1914 3420 
Q 2234 3584 2584 3584 
Q 3122 3584 3439 3221 
Q 3756 2859 3756 2241 
Q 3756 1734 3570 1259 
Q 3384 784 3041 416 
Q 2816 172 2522 40 
Q 2228 -91 1906 -91 
Q 1566 -91 1316 65 
Q 1066 222 909 531 
L 806 0 
L 231 0 
L 1178 4863 
L 1753 4863 
L 1381 2969 
z
" transform="scale(0.015625)"/>
      </defs>
      <use xlink:href="#STIXSizeOneSym-Regular-221a" transform="translate(0 -2.71875) scale(0.805769)"/>
      <use xlink:href="#DejaVuSans-Oblique-61" transform="translate(97.720612 0.515625)"/>
      <use xlink:href="#DejaVuSans-32" transform="translate(163.649804 38.796875) scale(0.7)"/>
      <use xlink:href="#DejaVuSans-Oblique-3bd" transform="translate(158.999908 -26.828125) scale(0.7)"/>
      <use xlink:href="#DejaVuSans-2b" transform="translate(230.402734 0.515625)"/>
      <use xlink:href="#DejaVuSans-Oblique-62" transform="translate(333.674218 0.515625)"/>
      <use xlink:href="#DejaVuSans-32" transform="translate(404.598489 38.796875) scale(0.7)"/>
      <use xlink:href="#DejaVuSans-Oblique-3bd" transform="translate(397.150781 -26.828125) scale(0.7)"/>
      <path d="M 85.220612 116.5 
L 85.220612 122.75 
L 464.368997 122.75 
L 464.368997 116.5 
L 85.220612 116.5 
z
"/>
     </g>
    </g>
   </g>
   <g id="line2d_34">
    <path d="M 83.702727 635.03999 
L 86.759025 611.235552 
L 88.505481 599.358332 
L 89.815323 591.852156 
L 91.125164 585.843313 
L 91.998392 582.776656 
L 92.87162 580.520459 
L 93.744848 579.11186 
L 94.181462 578.73357 
L 94.618076 578.575353 
L 95.05469 578.638229 
L 95.491304 578.92239 
L 95.927918 579.427196 
L 96.364532 580.151174 
L 97.23776 582.246638 
L 98.110988 585.180624 
L 98.984215 588.912244 
L 100.294057 595.885996 
L 101.603899 604.305863 
L 103.350355 617.296519 
L 105.533425 634.809522 
L 109.026336 606.051719 
L 110.772792 593.555623 
L 112.082634 585.681871 
L 113.392476 579.421133 
L 114.265704 576.265803 
L 115.138932 573.994697 
L 115.575546 573.205507 
L 116.01216 572.653484 
L 116.448773 572.342274 
L 116.885387 572.27466 
L 117.322001 572.452548 
L 117.758615 572.876957 
L 118.195229 573.548013 
L 119.068457 575.626053 
L 119.941685 578.669636 
L 120.814913 582.647392 
L 121.688141 587.513901 
L 122.997983 596.34746 
L 124.307825 606.792213 
L 126.05428 622.679608 
L 127.364122 634.491228 
L 131.730262 591.057673 
L 133.476717 576.112725 
L 134.786559 566.759089 
L 135.659787 561.620666 
L 136.533015 557.479202 
L 137.406243 554.424863 
L 137.842857 553.330302 
L 138.279471 552.535852 
L 138.716085 552.049239 
L 139.152699 551.877315 
L 139.589313 552.026032 
L 140.025927 552.500418 
L 140.462541 553.304562 
L 140.899155 554.441593 
L 141.772383 557.721978 
L 142.64561 562.347043 
L 143.518838 568.30642 
L 144.392066 575.573933 
L 145.701908 588.832451 
L 147.01175 604.732549 
L 149.19482 633.75541 
L 151.377889 597.274005 
L 154.870801 533.889381 
L 157.927099 479.75504 
L 159.673554 451.895442 
L 161.42001 427.569044 
L 162.729852 412.169059 
L 164.039694 399.540983 
L 164.912922 392.777493 
L 165.78615 387.398231 
L 166.659378 383.438112 
L 167.532606 380.917068 
L 167.969219 380.198315 
L 168.405833 379.84 
L 168.842447 379.84041 
L 169.279061 380.19692 
L 169.715675 380.906008 
L 170.152289 381.963272 
L 171.025517 385.100431 
L 171.898745 389.556362 
L 172.771973 395.266444 
L 174.081815 406.0134 
L 175.391657 419.107672 
L 177.138112 439.617797 
L 179.321182 468.873491 
L 183.687322 532.269332 
L 186.307005 568.572766 
L 188.053461 590.405127 
L 189.799917 609.653884 
L 191.109759 622.145244 
L 192.419601 632.84625 
L 192.856215 634.074944 
L 194.166056 625.830483 
L 195.475898 619.411491 
L 196.349126 616.113945 
L 197.222354 613.566197 
L 198.095582 611.728759 
L 198.96881 610.55517 
L 199.405424 610.201131 
L 199.842038 609.992967 
L 200.278652 609.923348 
L 200.715266 609.984702 
L 201.588494 610.469018 
L 202.461721 611.38173 
L 203.334949 612.656922 
L 204.644791 615.10385 
L 206.391247 619.020174 
L 210.320773 628.250975 
L 211.630614 630.869952 
L 212.940456 633.060928 
L 214.250298 634.753913 
L 214.686912 634.87959 
L 215.56014 634.166841 
L 216.433368 633.692991 
L 217.306596 633.450894 
L 218.179824 633.427622 
L 219.053052 633.604972 
L 219.926279 633.960054 
L 221.672735 634.987558 
L 223.855805 633.112666 
L 226.038875 631.235752 
L 227.348717 630.33208 
L 228.658558 629.722222 
L 229.531786 629.521821 
L 230.405014 629.510575 
L 231.278242 629.704058 
L 232.15147 630.112799 
L 233.024698 630.741983 
L 233.897926 631.591269 
L 235.207768 633.263327 
L 236.080996 634.624617 
L 236.51761 634.707649 
L 238.264065 631.341311 
L 240.883749 625.603691 
L 243.503433 619.973425 
L 244.813275 617.564549 
L 246.123116 615.623083 
L 246.996344 614.656684 
L 247.869572 613.996118 
L 248.7428 613.674289 
L 249.616028 613.719367 
L 250.489256 614.154091 
L 251.362484 614.995147 
L 252.235712 616.252628 
L 253.10894 617.929592 
L 253.982167 620.021717 
L 255.292009 623.910108 
L 256.601851 628.631049 
L 257.911693 634.072884 
L 258.348307 634.057684 
L 260.531377 623.59014 
L 264.460902 604.290292 
L 266.207358 596.972558 
L 267.5172 592.545183 
L 268.390428 590.243734 
L 269.263656 588.547884 
L 270.136884 587.526017 
L 270.573498 587.287714 
L 271.010112 587.24099 
L 271.446725 587.392675 
L 271.883339 587.74913 
L 272.319953 588.31622 
L 273.193181 590.103134 
L 274.066409 592.789471 
L 274.939637 596.40183 
L 275.812865 600.956755 
L 276.686093 606.46024 
L 277.995935 616.480236 
L 279.305777 628.557218 
L 279.74239 633.020829 
L 280.179004 632.385751 
L 281.92546 611.733888 
L 283.671916 588.36149 
L 286.2916 549.70323 
L 291.967581 463.856529 
L 293.714037 440.684814 
L 295.460493 420.622793 
L 296.770335 408.08754 
L 298.080176 398.016707 
L 298.953404 392.785714 
L 299.826632 388.80448 
L 300.69986 386.113991 
L 301.136474 385.262186 
L 301.573088 384.74277 
L 302.009702 384.557302 
L 302.446316 384.706531 
L 302.88293 385.190387 
L 303.319544 386.007983 
L 303.756158 387.157619 
L 304.629386 390.442158 
L 305.502613 395.014332 
L 306.375841 400.831969 
L 307.685683 411.771992 
L 308.995525 425.159512 
L 310.305367 440.712688 
L 312.051823 464.249818 
L 314.234892 496.932822 
L 321.220716 604.992251 
L 322.967171 628.097513 
L 323.403785 633.418108 
L 323.840399 631.542182 
L 325.150241 617.466909 
L 326.460083 605.454392 
L 327.769925 595.633551 
L 328.643153 590.34142 
L 329.516381 586.062884 
L 330.389609 582.793368 
L 331.262837 580.517293 
L 331.69945 579.744022 
L 332.136064 579.208506 
L 332.572678 578.905914 
L 333.009292 578.830828 
L 333.445906 578.977266 
L 333.88252 579.338711 
L 334.319134 579.90813 
L 335.192362 581.640371 
L 336.06559 584.10857 
L 336.938818 587.240986 
L 338.24866 593.015339 
L 339.558502 599.8333 
L 341.741571 612.727232 
L 345.234483 634.364832 
L 345.671097 633.135955 
L 347.417553 623.485124 
L 348.727394 617.155139 
L 350.037236 611.7906 
L 351.347078 607.517574 
L 352.220306 605.318911 
L 353.093534 603.658717 
L 353.966762 602.543515 
L 354.83999 601.97173 
L 355.276604 601.886976 
L 355.713218 601.933954 
L 356.149832 602.110324 
L 357.02306 602.839703 
L 357.896287 604.047912 
L 358.769515 605.701577 
L 359.642743 607.761801 
L 360.952585 611.517691 
L 362.699041 617.508762 
L 364.882111 625.974633 
L 367.06518 634.717971 
L 367.501794 633.654661 
L 369.684864 625.66753 
L 370.994706 621.512782 
L 372.304548 617.990328 
L 373.61439 615.196594 
L 374.487617 613.773884 
L 375.360845 612.719029 
L 376.234073 612.039166 
L 377.107301 611.735591 
L 377.980529 611.803874 
L 378.853757 612.234058 
L 379.726985 613.010933 
L 380.600213 614.114381 
L 381.473441 615.519792 
L 382.783283 618.130465 
L 384.093124 621.244422 
L 385.83958 625.963052 
L 388.895878 634.881467 
L 389.332492 633.936668 
L 391.515561 627.984587 
L 393.262017 623.905356 
L 394.571859 621.395355 
L 395.881701 619.43862 
L 396.754929 618.467761 
L 397.628157 617.775809 
L 398.501385 617.368026 
L 399.374613 617.245201 
L 400.24784 617.403728 
L 401.121068 617.83574 
L 401.994296 618.529313 
L 402.867524 619.468718 
L 404.177366 621.295851 
L 405.487208 623.554458 
L 407.233664 627.07944 
L 410.289961 633.979338 
L 410.726575 634.977848 
L 412.036417 632.173151 
L 413.782873 628.55879 
L 415.529329 625.469273 
L 416.839171 623.602046 
L 418.149012 622.183229 
L 419.02224 621.506098 
L 419.895468 621.052606 
L 420.768696 620.826136 
L 421.641924 620.826499 
L 422.515152 621.049993 
L 423.38838 621.489518 
L 424.261608 622.134736 
L 425.57145 623.458243 
L 426.881291 625.157366 
L 428.627747 627.887928 
L 430.810817 631.783949 
L 432.557273 635.04 
L 432.557273 635.04 
" clip-path="url(#pf10c1f7518)" style="fill: none; stroke: #ff7f0e; stroke-width: 1.5; stroke-linecap: square"/>
   </g>
   <g id="patch_8">
    <path d="M 66.26 647.8 
L 66.26 367.08 
" style="fill: none; stroke: #000000; stroke-width: 0.8; stroke-linejoin: miter; stroke-linecap: square"/>
   </g>
   <g id="patch_9">
    <path d="M 450 647.8 
L 450 367.08 
" style="fill: none; stroke: #000000; stroke-width: 0.8; stroke-linejoin: miter; stroke-linecap: square"/>
   </g>
   <g id="patch_10">
    <path d="M 66.26 647.8 
L 450 647.8 
" style="fill: none; stroke: #000000; stroke-width: 0.8; stroke-linejoin: miter; stroke-linecap: square"/>
   </g>
   <g id="patch_11">
    <path d="M 66.26 367.08 
L 450 367.08 
" style="fill: none; stroke: #000000; stroke-width: 0.8; stroke-linejoin: miter; stroke-linecap: square"/>
   </g>
   <g id="text_38">
    <!-- Fourier Coefficients -->
    <g transform="translate(199.841875 361.08) scale(0.12 -0.12)">
     <defs>
      <path id="DejaVuSans-46" d="M 628 4666 
L 3309 4666 
L 3309 4134 
L 1259 4134 
L 1259 2759 
L 3109 2759 
L 3109 2228 
L 1259 2228 
L 1259 0 
L 628 0 
L 628 4666 
z
" transform="scale(0.015625)"/>
      <path id="DejaVuSans-72" d="M 2631 2963 
Q 2534 3019 2420 3045 
Q 2306 3072 2169 3072 
Q 1681 3072 1420 2755 
Q 1159 2438 1159 1844 
L 1159 0 
L 581 0 
L 581 3500 
L 1159 3500 
L 1159 2956 
Q 1341 3275 1631 3429 
Q 1922 3584 2338 3584 
Q 2397 3584 2469 3576 
Q 2541 3569 2628 3553 
L 2631 2963 
z
" transform="scale(0.015625)"/>
      <path id="DejaVuSans-69" d="M 603 3500 
L 1178 3500 
L 1178 0 
L 603 0 
L 603 3500 
z
M 603 4863 
L 1178 4863 
L 1178 4134 
L 603 4134 
L 603 4863 
z
" transform="scale(0.015625)"/>
      <path id="DejaVuSans-43" d="M 4122 4306 
L 4122 3641 
Q 3803 3938 3442 4084 
Q 3081 4231 2675 4231 
Q 1875 4231 1450 3742 
Q 1025 3253 1025 2328 
Q 1025 1406 1450 917 
Q 1875 428 2675 428 
Q 3081 428 3442 575 
Q 3803 722 4122 1019 
L 4122 359 
Q 3791 134 3420 21 
Q 3050 -91 2638 -91 
Q 1578 -91 968 557 
Q 359 1206 359 2328 
Q 359 3453 968 4101 
Q 1578 4750 2638 4750 
Q 3056 4750 3426 4639 
Q 3797 4528 4122 4306 
z
" transform="scale(0.015625)"/>
      <path id="DejaVuSans-66" d="M 2375 4863 
L 2375 4384 
L 1825 4384 
Q 1516 4384 1395 4259 
Q 1275 4134 1275 3809 
L 1275 3500 
L 2222 3500 
L 2222 3053 
L 1275 3053 
L 1275 0 
L 697 0 
L 697 3053 
L 147 3053 
L 147 3500 
L 697 3500 
L 697 3744 
Q 697 4328 969 4595 
Q 1241 4863 1831 4863 
L 2375 4863 
z
" transform="scale(0.015625)"/>
      <path id="DejaVuSans-63" d="M 3122 3366 
L 3122 2828 
Q 2878 2963 2633 3030 
Q 2388 3097 2138 3097 
Q 1578 3097 1268 2742 
Q 959 2388 959 1747 
Q 959 1106 1268 751 
Q 1578 397 2138 397 
Q 2388 397 2633 464 
Q 2878 531 3122 666 
L 3122 134 
Q 2881 22 2623 -34 
Q 2366 -91 2075 -91 
Q 1284 -91 818 406 
Q 353 903 353 1747 
Q 353 2603 823 3093 
Q 1294 3584 2113 3584 
Q 2378 3584 2631 3529 
Q 2884 3475 3122 3366 
z
" transform="scale(0.015625)"/>
      <path id="DejaVuSans-74" d="M 1172 4494 
L 1172 3500 
L 2356 3500 
L 2356 3053 
L 1172 3053 
L 1172 1153 
Q 1172 725 1289 603 
Q 1406 481 1766 481 
L 2356 481 
L 2356 0 
L 1766 0 
Q 1100 0 847 248 
Q 594 497 594 1153 
L 594 3053 
L 172 3053 
L 172 3500 
L 594 3500 
L 594 4494 
L 1172 4494 
z
" transform="scale(0.015625)"/>
     </defs>
     <use xlink:href="#DejaVuSans-46"/>
     <use xlink:href="#DejaVuSans-6f" transform="translate(53.894531 0)"/>
     <use xlink:href="#DejaVuSans-75" transform="translate(115.076172 0)"/>
     <use xlink:href="#DejaVuSans-72" transform="translate(178.455078 0)"/>
     <use xlink:href="#DejaVuSans-69" transform="translate(219.568359 0)"/>
     <use xlink:href="#DejaVuSans-65" transform="translate(247.351562 0)"/>
     <use xlink:href="#DejaVuSans-72" transform="translate(308.875 0)"/>
     <use xlink:href="#DejaVuSans-20" transform="translate(349.988281 0)"/>
     <use xlink:href="#DejaVuSans-43" transform="translate(381.775391 0)"/>
     <use xlink:href="#DejaVuSans-6f" transform="translate(451.599609 0)"/>
     <use xlink:href="#DejaVuSans-65" transform="translate(512.78125 0)"/>
     <use xlink:href="#DejaVuSans-66" transform="translate(574.304688 0)"/>
     <use xlink:href="#DejaVuSans-66" transform="translate(609.509766 0)"/>
     <use xlink:href="#DejaVuSans-69" transform="translate(644.714844 0)"/>
     <use xlink:href="#DejaVuSans-63" transform="translate(672.498047 0)"/>
     <use xlink:href="#DejaVuSans-69" transform="translate(727.478516 0)"/>
     <use xlink:href="#DejaVuSans-65" transform="translate(755.261719 0)"/>
     <use xlink:href="#DejaVuSans-6e" transform="translate(816.785156 0)"/>
     <use xlink:href="#DejaVuSans-74" transform="translate(880.164062 0)"/>
     <use xlink:href="#DejaVuSans-73" transform="translate(919.373047 0)"/>
    </g>
   </g>
  </g>
 </g>
 <defs>
  <clipPath id="p950d4fcd10">
   <rect x="66.26" y="26.88" width="383.74" height="280.72"/>
  </clipPath>
  <clipPath id="pf10c1f7518">
   <rect x="66.26" y="367.08" width="383.74" height="280.72"/>
  </clipPath>
 </defs>
</svg>
